<svg xmlns="http://www.w3.org/2000/svg" version="1.1" viewBox="0 0 32 32">
  <path d="M18.7,22.7s.1-.5,1-.9c.5-.2.9-.5,1.3-.9,1.2-1.1,2.7-2.8,3.1-4.6.6-2.4.7-4.3,0-7.4-.7-3.1-2-7.1-2-7.1,0,0-1.8-.3-6.2-.3h0s0,0,0,0c-4.4,0-6.2.3-6.2.3,0,0-1.4,4-2,7.1-.7,3.1-.5,5,0,7.4.4,1.8,1.9,3.5,3.1,4.6.4.3.9.6,1.3.9.9.4,1,.9,1,.9,0,0,1,2.5,1.4,3.9.4,1.4-1.1,1.9-1.1,1.9,0,0-4.2,1.1-4.4,1.1-.3,0-.3.5-.1.6,1.2.2,6.2.3,6.8.3h0s0,0,0,0c.6,0,5.6,0,6.8-.3.2,0,.2-.5-.1-.6-.1,0-4.4-1.1-4.4-1.1,0,0-1.5-.4-1.1-1.9.4-1.4,1.4-3.9,1.4-3.9" />
</svg>