<?xml version="1.0" standalone="no"?>
<!DOCTYPE svg PUBLIC "-//W3C//DTD SVG 20010904//EN"
 "http://www.w3.org/TR/2001/REC-SVG-20010904/DTD/svg10.dtd">
<svg version="1.0" xmlns="http://www.w3.org/2000/svg"
 width="6790.000000pt" height="6790.000000pt" viewBox="0 0 6790.000000 6790.000000"
 preserveAspectRatio="xMidYMid meet">
<metadata>
Created by potrace 1.14, written by Peter Selinger 2001-2017
</metadata>
<g transform="translate(0.000000,6790.000000) scale(0.100000,-0.100000)"
fill="#000000" stroke="none">
<path d="M47875 67889 c-147 -36 -412 -146 -560 -234 -115 -67 -180 -126 -249
-223 -57 -81 -116 -148 -335 -383 -171 -183 -293 -336 -334 -418 -55 -112 -38
-210 44 -252 47 -24 93 -26 314 -14 105 5 172 4 219 -4 197 -34 339 -144 442
-343 39 -76 55 -97 127 -156 244 -204 350 -398 349 -637 -1 -159 -51 -316
-160 -497 -141 -236 -192 -417 -179 -643 21 -361 230 -677 552 -836 115 -56
220 -87 425 -123 247 -44 374 -94 421 -168 16 -26 19 -46 17 -95 -5 -76 -23
-105 -93 -144 -158 -88 -366 -106 -625 -54 -132 27 -163 30 -345 30 -165 0
-211 -3 -260 -18 -81 -25 -127 -59 -158 -115 -41 -78 -48 -139 -46 -414 3
-270 3 -263 -57 -518 -23 -96 -28 -137 -28 -250 1 -169 24 -274 94 -415 79
-161 186 -272 333 -346 227 -115 451 -56 554 146 92 180 198 267 305 251 57
-9 137 -46 212 -100 133 -95 216 -113 304 -68 71 38 102 94 241 442 198 498
238 630 297 980 104 617 80 980 -86 1315 -87 176 -186 297 -382 470 -48 42
-59 59 -74 110 -10 36 -17 92 -17 140 0 75 5 92 68 255 37 96 142 353 232 570
233 558 243 584 243 635 0 40 -25 184 -34 192 -5 5 -134 -84 -169 -116 -18
-16 -34 -49 -48 -96 -65 -220 -173 -339 -309 -339 -111 -1 -172 58 -223 211
-42 129 -57 237 -57 424 0 366 67 657 230 999 90 188 105 236 98 323 -14 171
-150 271 -407 297 -120 13 -174 29 -351 105 -262 114 -425 152 -535 124z"/>
<path d="M46521 64423 c-50 -71 -112 -170 -138 -220 l-47 -93 18 -36 c27 -58
167 -234 180 -227 33 20 432 326 434 334 4 10 -336 369 -349 369 -4 0 -48 -57
-98 -127z"/>
<path d="M46708 63676 c-102 -36 -205 -177 -268 -366 -36 -107 -50 -189 -50
-300 0 -170 -17 -357 -59 -660 -52 -368 -74 -583 -67 -642 7 -62 49 -147 96
-193 82 -80 257 -86 407 -13 69 34 167 128 201 194 49 95 55 145 49 359 -6
173 -23 433 -42 613 -5 50 -4 52 19 52 24 0 25 2 20 48 -2 26 -11 148 -19 272
-21 305 -42 475 -66 530 -46 103 -123 141 -221 106z"/>
<path d="M44647 61829 c-242 -35 -542 -209 -696 -403 -55 -69 -57 -74 -39
-141 9 -33 16 -44 28 -41 8 3 143 37 298 76 365 92 678 177 712 195 15 8 55
45 89 82 l61 68 -58 53 c-80 73 -127 99 -202 111 -74 12 -110 12 -193 0z"/>
<path d="M51410 61534 c-422 -227 -584 -339 -794 -548 -149 -148 -265 -280
-458 -523 -295 -369 -347 -453 -356 -574 -8 -111 23 -144 195 -215 48 -19 117
-49 154 -65 l65 -30 155 103 c211 140 246 178 413 448 377 609 619 926 878
1145 58 50 113 104 122 121 14 28 50 184 43 190 -10 9 -174 54 -195 54 -15 -1
-115 -48 -222 -106z"/>
<path d="M52953 61550 c-217 -47 -458 -133 -703 -252 -133 -65 -151 -76 -226
-151 -128 -130 -175 -248 -175 -442 0 -162 36 -278 113 -358 37 -39 39 -40 92
-34 74 7 230 74 535 229 139 71 255 127 256 126 1 -2 10 -18 20 -37 l17 -34
116 6 c147 7 208 20 300 63 183 87 284 279 269 509 -11 181 -100 303 -266 366
-82 31 -229 35 -348 9z"/>
<path d="M42005 60491 c-124 -23 -176 -40 -290 -97 -122 -60 -247 -155 -390
-299 -152 -151 -397 -443 -432 -514 -31 -63 -41 -151 -23 -205 15 -46 88 -110
148 -131 149 -50 377 -41 827 35 546 92 1550 291 1669 331 86 29 151 73 172
117 26 53 31 211 10 284 -27 94 -128 199 -267 276 -121 69 -275 102 -710 156
-158 20 -311 41 -340 46 -106 21 -267 21 -374 1z"/>
<path d="M48642 60330 c-225 -59 -382 -144 -521 -282 -128 -126 -222 -296
-271 -488 -37 -146 -42 -258 -35 -825 7 -624 0 -813 -35 -872 -32 -55 -143
-202 -153 -203 -5 0 -57 48 -117 108 l-107 107 -172 344 c-197 395 -255 496
-326 566 -70 71 -131 99 -227 103 -130 7 -253 -43 -356 -141 -94 -90 -124
-212 -84 -344 46 -151 480 -790 853 -1255 157 -195 209 -299 217 -429 5 -93
-8 -160 -53 -260 -40 -88 -45 -147 -16 -194 48 -80 771 -1046 825 -1103 48
-51 114 -66 266 -60 211 9 235 31 235 213 0 107 -1 112 -39 195 -40 85 -54
157 -42 205 10 38 70 100 120 124 47 22 253 76 421 110 154 31 285 49 455 61
317 24 514 106 750 312 145 126 550 584 583 657 65 145 -15 298 -199 382 -83
38 -342 125 -434 145 -118 27 -342 25 -447 -4 -45 -12 -104 -22 -130 -22 -178
1 -399 223 -459 460 -43 170 49 361 189 390 67 14 127 4 408 -66 253 -62 389
-84 525 -84 248 0 425 72 595 241 l68 69 258 80 c288 90 812 264 1003 333 168
60 270 81 405 80 239 0 379 -65 586 -274 137 -137 195 -171 299 -177 53 -3 81
1 141 23 123 44 140 47 204 40 l62 -6 7 -88 c5 -72 3 -98 -14 -150 -27 -85
-26 -153 3 -216 43 -92 196 -208 337 -256 91 -31 243 -37 344 -14 160 35 334
148 435 281 92 123 222 408 286 628 22 75 12 129 -50 272 -25 57 -50 115 -55
129 l-10 25 -127 -64 c-180 -91 -215 -101 -353 -101 -158 0 -164 3 -223 123
-94 193 -231 347 -552 618 -104 89 -235 204 -291 256 -115 109 -206 166 -314
200 -63 19 -97 23 -215 22 -118 0 -157 -4 -249 -27 -190 -48 -214 -65 -281
-210 -37 -80 -69 -192 -105 -368 -26 -126 -61 -200 -113 -243 -32 -26 -48 -31
-105 -34 -59 -3 -84 2 -217 47 -229 76 -291 86 -550 86 -200 -1 -232 -3 -345
-27 -229 -49 -356 -97 -765 -291 -203 -96 -448 -192 -529 -209 -70 -14 -118
-4 -159 32 -64 56 -71 138 -31 367 14 81 28 162 31 178 4 28 1 32 -41 52 l-46
23 -292 -264 -292 -263 -24 71 c-33 100 -31 161 16 396 54 270 64 345 65 465
2 172 -48 272 -149 303 -60 18 -188 14 -272 -8z"/>
<path d="M45283 60216 c-39 -37 -81 -85 -92 -109 -48 -98 -15 -194 105 -306
121 -113 281 -180 434 -183 93 -1 137 19 203 92 53 59 62 88 52 176 -23 214
-239 370 -540 390 l-90 5 -72 -65z"/>
<path d="M41695 58829 c-270 -26 -575 -110 -914 -250 -255 -106 -314 -142
-359 -218 -87 -149 57 -472 255 -567 47 -22 76 -29 148 -32 149 -7 251 29 511
180 182 106 280 154 399 194 216 72 432 100 695 91 208 -8 313 -21 850 -107
239 -39 444 -71 454 -73 15 -1 24 12 42 60 l23 61 -76 57 c-99 75 -168 106
-473 210 -179 61 -310 113 -441 176 -103 49 -240 107 -305 128 -259 86 -535
117 -809 90z"/>
<path d="M44373 58199 c-69 -20 -117 -136 -118 -285 0 -97 1 -103 38 -175 70
-139 271 -380 350 -421 59 -30 153 -35 193 -10 29 19 74 80 124 167 l22 40
-56 194 c-88 302 -148 411 -251 456 -94 42 -224 56 -302 34z"/>
<path d="M45764 56759 l-9 -32 -165 -1 c-158 -1 -167 -2 -215 -28 -98 -52
-147 -128 -147 -229 0 -88 24 -129 179 -294 248 -265 337 -340 452 -375 35
-11 89 -20 120 -20 149 0 556 156 696 267 106 84 140 216 82 316 -71 121 -227
198 -697 344 -312 96 -285 91 -296 52z"/>
<path d="M47601 55240 c-40 -10 -75 -21 -77 -23 -5 -5 123 -627 130 -635 3 -3
46 3 95 13 82 17 90 21 86 39 -6 24 -125 619 -125 623 0 6 -37 0 -109 -17z"/>
<path d="M48292 54691 c-30 -10 -60 -25 -67 -32 -19 -19 -218 -349 -334 -554
-250 -438 -297 -540 -308 -667 l-6 -67 57 -63 c165 -182 170 -340 23 -714 -52
-132 -106 -216 -160 -252 -76 -50 -190 -35 -362 48 -165 79 -283 212 -339 380
-37 113 -44 265 -22 530 19 229 20 339 5 395 -8 29 -71 188 -84 212 -2 5 -192
-65 -213 -78 -26 -16 -184 -254 -542 -814 -134 -209 -286 -445 -338 -525 -52
-80 -147 -230 -210 -335 -198 -329 -247 -383 -479 -539 -540 -360 -1001 -818
-1599 -1587 -83 -107 -378 -495 -655 -864 -692 -919 -965 -1269 -1075 -1379
-32 -32 -106 -97 -164 -145 -257 -210 -289 -240 -449 -440 -386 -483 -693
-919 -883 -1251 -327 -572 -673 -1244 -1015 -1970 -256 -544 -361 -798 -648
-1564 -103 -275 -256 -680 -342 -900 -460 -1187 -563 -1515 -813 -2586 -39
-168 -145 -606 -235 -975 -337 -1377 -348 -1430 -395 -1735 -36 -236 -84 -386
-152 -473 -41 -53 -190 -221 -199 -225 -11 -5 -238 239 -279 300 -21 32 -48
88 -61 125 -39 120 -51 136 -161 216 -154 111 -435 295 -588 382 -74 43 -159
92 -189 109 -73 42 -145 108 -166 152 -40 85 -4 171 142 339 116 135 153 191
279 435 345 666 337 652 416 726 23 22 73 64 110 93 201 157 354 408 402 661
22 114 20 302 -3 416 -23 113 -75 241 -137 342 -64 105 -230 268 -365 360
-183 125 -286 251 -319 391 -18 78 -7 253 24 376 14 55 50 165 81 245 90 236
100 277 99 415 0 107 -3 127 -28 190 -43 107 -43 124 -4 208 19 39 65 113 103
162 73 98 98 142 125 221 50 145 29 326 -59 502 -119 239 -362 705 -386 741
-17 24 -69 80 -117 124 l-87 79 -58 -62 c-32 -34 -74 -85 -93 -112 l-35 -50 0
-241 c0 -133 4 -384 9 -558 5 -174 6 -332 2 -352 -4 -20 -25 -62 -46 -95 -56
-84 -123 -118 -490 -247 -74 -26 -155 -58 -180 -71 -96 -48 -139 -125 -119
-213 21 -94 76 -162 219 -268 128 -96 433 -398 493 -489 67 -101 98 -191 104
-294 10 -156 -30 -263 -134 -361 -52 -48 -98 -76 -261 -157 -222 -110 -519
-299 -669 -426 -163 -137 -276 -303 -322 -476 -12 -41 -25 -127 -31 -191 -5
-64 -19 -147 -31 -185 -29 -97 -92 -213 -139 -259 -33 -33 -47 -39 -92 -43
-43 -3 -59 0 -88 20 -57 38 -78 94 -94 253 -35 337 -155 578 -335 674 -158 83
-330 90 -646 25 -151 -32 -287 -41 -352 -25 -69 18 -265 139 -418 259 -106 83
-302 286 -372 385 -77 110 -164 278 -202 393 -74 222 -246 937 -495 2059 -290
1307 -649 2842 -682 2910 -16 34 -122 170 -133 170 -3 0 -23 -18 -43 -40 l-36
-40 9 -195 c4 -107 13 -361 19 -565 12 -410 21 -556 51 -784 37 -284 98 -531
190 -771 53 -139 62 -171 79 -280 6 -41 56 -322 110 -625 155 -861 217 -1255
241 -1535 14 -158 6 -406 -15 -500 -8 -36 -24 -105 -36 -155 -27 -115 -37
-330 -21 -417 49 -249 251 -401 585 -439 238 -26 356 -65 416 -137 50 -59 163
-297 213 -449 51 -153 57 -204 31 -279 -36 -107 -68 -132 -265 -207 -126 -49
-469 -161 -473 -156 -2 2 -16 29 -32 59 -37 72 -144 177 -219 217 -121 63
-243 90 -588 128 -125 14 -248 32 -275 41 -140 47 -312 194 -376 323 -36 71
-62 160 -106 356 -51 229 -74 309 -114 404 -60 143 -153 262 -262 337 -47 33
-56 44 -73 98 -11 34 -150 457 -310 941 -571 1734 -653 1993 -861 2715 -266
924 -263 916 -433 1150 -54 74 -102 141 -106 149 -7 11 -23 6 -84 -20 l-75
-34 -8 -95 c-4 -52 -7 -160 -7 -240 1 -140 2 -151 51 -345 80 -315 333 -1174
527 -1785 118 -371 501 -1558 515 -1594 16 -42 197 -695 245 -881 92 -360 112
-487 95 -601 -17 -114 -43 -188 -100 -286 -68 -120 -90 -189 -90 -287 0 -160
62 -253 228 -340 156 -82 238 -165 357 -361 32 -52 82 -132 112 -177 69 -106
108 -192 135 -301 29 -116 32 -421 5 -490 -39 -100 -101 -146 -198 -146 -97 1
-152 35 -318 197 -181 177 -207 192 -341 192 -87 0 -101 -3 -160 -32 -36 -18
-104 -57 -152 -87 -138 -85 -227 -119 -330 -124 -80 -4 -93 -2 -143 23 -73 35
-141 103 -208 206 -30 46 -138 253 -240 459 -247 499 -359 686 -563 930 -259
313 -411 603 -515 985 -60 219 -823 2528 -975 2948 -153 421 -354 920 -385
953 -29 31 -209 128 -218 118 -10 -11 -55 -123 -87 -218 -28 -80 -30 -111 -10
-163 8 -21 106 -339 216 -708 364 -1212 689 -2273 792 -2584 90 -273 110 -325
193 -486 114 -221 137 -276 175 -435 82 -333 188 -592 339 -830 110 -174 129
-207 164 -296 39 -97 122 -404 187 -694 71 -318 140 -494 244 -628 55 -72 108
-121 219 -207 137 -105 207 -216 207 -328 0 -53 -23 -140 -59 -219 -17 -36
-42 -112 -56 -169 -20 -83 -131 -436 -140 -447 -6 -8 -353 106 -421 138 -93
45 -143 90 -212 192 -78 114 -106 146 -184 206 -133 101 -232 188 -355 313
-283 287 -475 558 -846 1189 -67 114 -106 167 -183 251 -55 58 -151 167 -214
243 -326 392 -332 401 -455 715 -227 580 -546 1526 -979 2908 -378 1203 -480
1500 -539 1560 -24 23 -198 133 -212 133 -1 0 -26 -47 -55 -105 l-54 -104 23
-183 c37 -303 90 -565 153 -753 17 -49 70 -190 119 -312 48 -123 164 -456 258
-740 374 -1143 485 -1504 716 -2343 165 -598 264 -938 296 -1020 45 -113 147
-292 489 -865 232 -387 276 -467 448 -810 238 -475 329 -611 577 -865 158
-162 236 -258 331 -413 142 -228 400 -787 450 -971 13 -50 40 -174 59 -276 50
-259 78 -357 145 -500 87 -188 113 -274 129 -438 16 -152 -8 -388 -59 -592
-38 -152 -51 -262 -125 -1040 -100 -1055 -87 -953 -140 -1064 -63 -132 -88
-230 -88 -346 0 -112 18 -191 67 -288 36 -71 128 -193 186 -247 60 -56 118
-208 107 -284 -6 -44 -228 -565 -303 -712 -130 -255 -244 -391 -587 -705 -250
-229 -476 -421 -1041 -883 -281 -230 -533 -437 -561 -460 -72 -60 -106 -76
-280 -126 -456 -131 -773 -335 -977 -628 -35 -50 -71 -97 -81 -106 -9 -8 -54
-32 -100 -52 -93 -41 -933 -419 -1106 -498 -628 -288 -1327 -658 -2601 -1379
-1192 -674 -1299 -742 -1565 -992 -281 -263 -796 -764 -1035 -1006 -581 -588
-820 -873 -1261 -1504 -402 -574 -450 -648 -565 -870 -62 -121 -155 -286 -207
-367 -408 -643 -613 -1190 -668 -1783 -6 -70 -9 -217 -7 -330 4 -173 7 -214
25 -262 11 -32 17 -58 14 -58 -9 0 -576 200 -846 298 -1005 365 -2013 771
-2966 1195 -987 439 -2083 986 -2860 1428 -240 136 -631 369 -706 420 -44 31
-68 37 -60 16 2 -6 941 -3369 2086 -7472 1146 -4103 2091 -7491 2102 -7529
l21 -68 211 -103 c1456 -705 3690 -1490 5992 -2105 4695 -1254 10004 -1976
15735 -2140 1440 -41 3479 -41 5020 0 6392 171 12235 964 17135 2326 1559 433
3091 959 4111 1411 l192 85 2280 7981 c1254 4390 2279 7983 2277 7985 -2 2
-30 -14 -63 -37 -186 -126 -733 -451 -1142 -678 -732 -407 -1696 -892 -2525
-1270 -1387 -633 -2797 -1195 -4335 -1728 -412 -142 -700 -238 -704 -234 -5 7
-96 369 -167 664 -84 354 -120 484 -228 824 -110 344 -139 453 -220 821 -145
656 -152 739 -117 1260 87 1262 48 1838 -174 2575 -28 94 -92 323 -141 510
-218 823 -303 1048 -576 1529 -361 636 -752 1147 -1309 1716 -245 250 -309
352 -360 575 -23 99 -24 169 -6 1555 7 558 17 1924 23 3035 6 1111 15 2180 20
2375 6 195 14 1642 18 3215 9 3094 5 2906 61 3280 56 369 111 557 188 638 15
16 64 46 109 68 286 137 540 388 756 747 110 184 266 476 288 538 53 149 61
366 20 504 -10 36 -50 137 -89 225 -241 555 -386 1165 -442 1870 -19 230 -42
323 -181 734 -44 129 -90 278 -104 330 -60 239 -234 1287 -346 2081 -61 439
-57 474 95 834 40 94 85 207 99 251 114 346 106 642 -23 935 -94 212 -131 344
-210 735 -67 337 -151 671 -189 752 -18 37 -56 96 -85 132 -105 129 -159 234
-191 371 -21 93 -19 299 5 430 10 58 28 155 39 215 19 106 71 476 71 506 0 9
-20 21 -49 31 l-48 15 -124 -110 c-161 -143 -210 -179 -293 -218 -94 -44 -186
-50 -271 -19 -53 20 -77 40 -195 160 -147 148 -225 209 -346 269 -171 85 -336
117 -561 109 -177 -7 -223 7 -279 83 -20 27 -35 51 -33 53 2 2 51 27 109 56
126 65 223 154 318 297 185 276 234 454 183 656 -31 118 -81 215 -223 429
l-131 198 -51 0 c-28 -1 -75 -9 -104 -19z m-501 -2556 c45 -24 78 -83 306
-550 331 -677 473 -990 498 -1100 21 -90 22 -219 2 -266 -46 -111 -262 -145
-516 -80 -238 61 -924 286 -1012 331 -13 7 -58 45 -99 84 -111 105 -305 276
-362 319 -80 59 -86 59 -223 -12 -168 -87 -292 -177 -420 -306 -112 -113 -157
-176 -203 -287 -35 -85 -37 -210 -6 -279 27 -57 83 -120 143 -162 25 -17 51
-38 57 -46 7 -9 14 -72 16 -156 4 -124 8 -150 34 -225 39 -110 105 -222 216
-363 258 -327 291 -381 365 -592 65 -189 121 -316 286 -660 69 -143 150 -323
180 -400 89 -224 234 -747 361 -1306 82 -358 205 -946 221 -1058 16 -105 38
-554 33 -664 l-3 -69 -65 50 c-203 153 -301 334 -356 652 -29 173 -56 257
-142 450 -35 80 -151 345 -257 590 -427 986 -630 1434 -684 1505 -21 28 -82
91 -136 140 -78 72 -100 87 -107 75 -165 -279 -173 -303 -182 -490 -17 -370
-28 -658 -46 -1230 -26 -840 -23 -802 -67 -944 l-37 -118 -60 6 c-33 3 -60 7
-61 9 -2 1 -10 99 -20 217 -22 269 -23 481 -1 679 19 186 20 290 1 396 -18 99
-75 218 -145 298 -60 70 -65 86 -64 197 0 68 15 152 76 425 126 559 277 1205
299 1280 11 39 49 124 84 190 77 146 99 216 93 299 -5 78 -39 152 -111 239
-31 38 -65 93 -76 122 -32 85 -43 206 -31 337 20 220 -25 307 -180 348 -130
34 -201 116 -200 230 1 19 8 71 16 115 10 50 18 187 24 370 9 309 16 352 82
548 l24 69 59 -48 c33 -26 99 -84 146 -129 154 -143 259 -187 391 -165 82 14
175 58 373 177 83 50 292 168 465 263 565 310 600 335 766 541 132 164 179
193 255 154z m-625 -2678 c88 -80 112 -141 204 -518 57 -236 76 -287 138 -382
109 -167 271 -235 527 -222 154 8 238 -6 336 -55 93 -47 216 -176 299 -313 36
-59 141 -228 234 -376 l168 -268 49 15 c27 9 49 22 49 29 0 7 -20 115 -44 241
-63 320 -78 430 -79 567 -2 193 41 299 158 387 64 49 149 82 310 123 75 19
189 58 270 93 77 33 158 65 180 71 57 16 145 14 196 -4 60 -22 125 -87 149
-153 58 -155 91 -633 60 -877 -14 -113 -35 -160 -101 -231 -72 -75 -169 -138
-281 -179 -115 -43 -166 -78 -198 -135 -22 -40 -25 -56 -24 -140 2 -139 37
-220 111 -255 31 -15 53 -17 147 -11 108 6 113 6 171 -23 128 -61 151 -115
259 -611 24 -113 81 -349 125 -525 207 -828 277 -1141 291 -1305 41 -485 73
-992 74 -1175 1 -198 0 -212 -21 -250 -47 -88 -128 -138 -249 -154 -38 -5
-163 -17 -278 -27 -248 -21 -361 -13 -507 36 -108 36 -179 79 -240 147 -60 68
-98 141 -154 303 -77 221 -122 296 -226 375 -77 58 -166 101 -241 117 -49 10
-59 9 -99 -10 -45 -22 -181 -126 -187 -143 -2 -5 27 -46 66 -92 95 -113 237
-327 257 -388 24 -72 13 -268 -66 -1151 l-23 -257 -30 17 c-17 9 -71 58 -121
109 -102 104 -152 132 -233 133 -88 0 -131 -28 -287 -184 -231 -233 -378 -311
-580 -309 -149 1 -309 74 -415 190 -129 141 -180 358 -180 763 0 402 54 610
317 1225 82 193 169 401 193 463 26 67 49 112 57 112 7 0 37 -12 66 -27 51
-27 55 -27 254 -27 188 -1 203 0 229 20 59 44 68 66 72 181 5 127 -4 175 -64
324 -216 537 -340 1104 -440 2004 l-26 240 17 160 c10 88 21 164 25 168 6 7
177 -152 422 -391 l76 -75 47 19 c26 11 49 24 51 29 2 6 -79 262 -179 570
l-183 559 -45 13 c-24 7 -49 11 -55 9 -6 -2 -82 -127 -169 -278 -87 -150 -163
-279 -170 -286 -10 -11 -29 -2 -101 48 -134 94 -148 109 -203 240 -79 188
-236 613 -340 920 l-96 285 1 180 c1 208 6 230 93 358 l52 78 40 -32 c23 -18
65 -55 95 -82z m-3721 -1278 c173 -55 224 -97 391 -321 173 -232 251 -385 388
-761 221 -603 261 -767 260 -1062 0 -148 -3 -186 -28 -295 -90 -408 -118 -587
-140 -905 -28 -391 -38 -659 -40 -1025 l-1 -365 57 -140 c83 -202 86 -224 49
-365 -16 -63 -57 -182 -91 -265 -125 -304 -141 -348 -219 -597 -130 -415 -168
-569 -245 -988 -90 -484 -148 -905 -150 -1070 -1 -115 -1 -115 38 -195 33 -67
56 -96 139 -175 240 -228 263 -254 303 -336 l39 -78 0 -126 c-1 -110 -4 -139
-34 -245 -35 -127 -36 -147 -11 -287 l12 -68 87 0 c157 1 155 0 486 244 262
193 404 288 585 391 303 173 680 342 842 376 137 30 252 -39 307 -185 10 -28
20 -72 22 -99 l4 -47 -770 -396 c-423 -218 -859 -440 -967 -495 -109 -54 -198
-104 -198 -111 0 -7 59 -134 131 -282 223 -459 324 -704 335 -813 12 -116 -51
-303 -130 -391 -102 -113 -330 -191 -470 -162 -154 32 -305 255 -480 705 -36
94 -90 233 -120 310 -30 77 -58 139 -63 138 -10 -2 -708 -471 -838 -563 -203
-144 -285 -211 -304 -248 -20 -39 -76 -280 -67 -289 14 -14 251 -32 356 -27
206 11 311 -26 516 -182 263 -200 492 -312 784 -385 83 -20 120 -23 285 -24
224 0 297 15 455 93 77 38 110 61 175 127 100 100 193 235 248 363 25 57 63
122 92 157 149 184 235 377 265 602 16 115 8 372 -15 496 -12 70 -13 96 -4
130 30 112 104 209 216 284 87 57 439 227 453 218 5 -3 16 -25 26 -50 l17 -45
-46 -122 c-25 -68 -111 -304 -191 -525 -229 -632 -417 -1086 -525 -1271 -112
-191 -322 -420 -511 -555 -125 -88 -361 -207 -513 -256 -407 -132 -785 -131
-1192 4 -225 75 -241 68 -334 -146 -51 -118 -133 -245 -233 -364 -145 -172
-214 -225 -289 -225 -42 0 -55 5 -90 37 -92 83 -111 166 -112 503 -3 364 -10
355 293 355 l196 0 77 38 c92 45 102 63 88 142 -15 82 -36 121 -78 149 -83 55
-286 74 -382 36 l-49 -19 -104 97 c-161 152 -181 161 -256 123 -75 -38 -231
-229 -297 -364 -36 -73 -46 -86 -105 -125 -133 -89 -245 -221 -329 -389 -22
-46 -73 -160 -112 -255 -187 -452 -404 -785 -620 -950 -79 -60 -214 -138 -239
-138 -17 1 -70 44 -70 57 2 25 130 170 219 248 217 187 342 388 404 649 20 82
22 120 23 391 0 246 3 309 16 347 43 128 131 217 300 303 62 32 130 71 151 87
79 62 191 287 204 408 5 54 3 63 -17 85 -57 60 -294 126 -701 195 -160 27
-293 51 -295 53 -5 4 588 406 776 526 80 51 209 124 288 162 216 106 308 163
387 243 107 109 154 224 142 352 -9 90 -39 165 -107 269 -120 183 -121 235 -1
484 173 360 222 614 176 911 -42 272 5 487 191 882 46 97 97 216 114 265 68
204 76 385 24 558 -39 131 -46 173 -39 235 10 90 34 160 85 251 91 161 135
287 166 474 20 121 22 435 5 695 -31 462 -31 1323 -1 1705 14 166 38 254 126
463 155 366 165 434 124 786 -157 1324 -158 1333 -136 1462 27 158 124 427
187 515 22 31 23 31 83 24 33 -3 101 -20 151 -36z m4581 -7183 c98 -45 191
-164 266 -339 53 -125 99 -260 91 -268 -10 -8 -839 -349 -851 -349 -10 0 -47
191 -69 358 -20 157 -14 315 17 397 31 80 105 154 185 184 148 56 263 61 361
17z m1254 -1000 c356 -76 671 -295 735 -510 18 -59 20 -194 4 -268 -18 -83
-42 -125 -166 -289 -224 -297 -405 -508 -683 -794 -199 -204 -232 -245 -285
-358 -74 -157 -88 -289 -56 -535 17 -131 61 -641 61 -713 0 -12 -15 -19 -59
-26 l-59 -9 -42 210 c-82 408 -112 501 -212 663 l-19 33 -102 -52 c-145 -72
-167 -90 -368 -285 -185 -179 -245 -226 -312 -244 -105 -28 -204 83 -283 319
l-26 77 -2 1030 -1 1030 27 45 c42 72 128 147 216 187 569 262 1085 468 1245
499 90 17 283 12 387 -10z m-14381 -1363 c78 -381 111 -568 118 -658 5 -73 3
-85 -20 -130 -68 -129 -225 -235 -404 -272 -78 -17 -82 -16 -199 7 -219 45
-308 28 -384 -74 -68 -89 -63 -86 -142 -86 -145 1 -349 57 -566 154 -125 56
-164 80 -222 137 -101 98 -493 584 -551 683 -19 32 -72 226 -64 234 9 10 237
33 290 30 51 -3 74 -12 145 -53 77 -45 90 -49 169 -56 97 -7 112 -12 160 -47
51 -38 73 -98 81 -228 9 -129 32 -192 88 -247 50 -49 122 -83 228 -108 123
-29 177 -24 244 26 95 70 160 165 290 428 140 285 186 349 282 396 46 23 330
108 399 120 3 1 29 -115 58 -256z m15113 -360 l53 -105 7 -726 c4 -400 9
-1870 10 -3267 3 -2356 2 -2557 -15 -2775 -21 -280 -26 -313 -80 -497 l-41
-143 -33 0 -32 0 -51 159 c-89 281 -78 213 -285 1796 -123 945 -191 1432 -270
1953 -36 233 -68 467 -71 520 -12 186 19 411 115 836 71 308 84 381 111 624
22 198 68 470 125 737 95 446 108 517 114 621 7 111 7 112 48 165 22 30 80 96
129 148 102 108 86 112 166 -46z m-18214 -528 c88 -192 172 -375 186 -405 14
-30 26 -59 26 -65 0 -5 -18 -17 -40 -27 l-39 -16 -73 50 c-271 187 -368 374
-313 606 20 86 75 226 85 215 4 -4 80 -165 168 -358z m-1015 -12 c28 -35 37
-125 37 -365 l0 -217 -92 40 c-51 23 -167 77 -257 120 l-164 80 6 43 c11 80
47 157 96 206 25 25 97 82 160 127 l114 82 41 -46 c23 -26 49 -57 59 -70z
m-1632 -337 c24 -26 104 -164 323 -563 190 -346 304 -543 415 -716 94 -146
122 -201 149 -287 40 -132 37 -241 -10 -388 -18 -56 -32 -77 -85 -129 l-63
-63 -66 72 c-59 64 -65 75 -59 102 3 17 8 86 12 153 4 94 2 138 -12 198 -34
156 -151 330 -311 467 -46 39 -84 72 -84 72 0 1 -92 259 -204 574 l-203 573
29 24 30 25 59 -46 c33 -25 69 -56 80 -68z m-386 -606 c177 -243 175 -231 33
-210 -209 30 -274 91 -248 231 11 58 51 201 56 197 1 -2 73 -100 159 -218z
m-425 -161 c29 -13 81 -57 145 -123 112 -115 172 -159 251 -187 100 -36 225
-17 334 50 27 17 52 31 55 31 10 0 4 -76 -9 -141 -36 -166 -135 -276 -276
-305 -86 -17 -148 -3 -345 81 -272 116 -414 193 -462 249 -30 35 -78 136 -88
182 -8 42 33 90 109 127 117 57 212 69 286 36z m6425 -434 c135 -35 293 -130
440 -267 44 -41 94 -84 110 -95 27 -19 224 -329 214 -336 -21 -14 -212 -99
-239 -107 -19 -6 -78 -15 -130 -20 -151 -16 -236 -71 -290 -187 -11 -24 -30
-64 -42 -90 -38 -84 -145 -178 -298 -263 -76 -42 -156 -96 -184 -122 -48 -47
-49 -47 -44 -102 4 -43 15 -72 54 -137 27 -45 48 -84 47 -88 -1 -3 -50 -78
-109 -166 -179 -267 -251 -326 -517 -429 -152 -59 -223 -96 -416 -216 -204
-127 -304 -176 -482 -235 l-141 -47 -35 35 -35 35 66 331 c101 500 138 613
273 822 44 68 120 196 168 284 93 169 162 276 250 389 165 212 176 384 39 592
-24 38 -49 84 -55 104 -12 42 -39 232 -39 278 0 38 -21 40 200 -20 179 -49
290 -91 318 -121 12 -12 35 -56 52 -97 17 -41 35 -79 40 -84 6 -6 18 2 32 20
45 58 154 167 213 211 74 56 162 101 240 124 76 22 221 24 300 4z m5466 -342
c15 -13 52 -71 83 -127 l56 -103 -35 -209 c-42 -246 -65 -337 -107 -417 -43
-80 -134 -161 -233 -209 -103 -49 -159 -53 -210 -14 -46 35 -132 158 -191 273
-46 88 -47 95 -52 195 -7 167 32 395 80 469 48 71 255 152 436 169 100 9 141
3 173 -27z m-8638 -93 c186 -47 369 -178 440 -315 26 -50 34 -172 17 -247 -20
-88 -92 -227 -192 -374 -159 -232 -196 -331 -183 -487 l7 -79 -69 -71 c-38
-40 -160 -191 -272 -336 l-203 -263 85 -79 c197 -183 250 -345 160 -498 -77
-133 -298 -310 -750 -602 -239 -155 -217 -149 -301 -82 -23 19 -47 43 -52 54
-12 22 4 116 115 659 114 562 136 711 150 1000 3 69 10 202 15 295 6 94 14
281 20 416 18 446 67 619 222 784 196 210 506 298 791 225z m-4649 -152 c145
-76 216 -148 285 -293 152 -314 237 -556 286 -815 10 -51 20 -180 25 -320 9
-259 12 -272 101 -575 28 -93 52 -176 55 -184 6 -20 26 0 79 79 97 146 144
311 170 600 20 220 31 304 56 405 20 79 92 239 126 282 20 24 547 239 788 322
180 61 328 101 373 101 44 0 125 -39 219 -106 42 -31 104 -74 137 -96 34 -23
63 -43 65 -44 2 -2 -4 -22 -14 -44 -10 -22 -16 -42 -14 -44 2 -3 51 24 109 59
97 60 105 63 122 48 17 -15 17 -17 -1 -47 -66 -108 -311 -545 -311 -553 0 -6
35 -23 78 -38 140 -49 255 -110 299 -158 74 -80 78 -151 23 -427 -30 -152 -48
-205 -150 -453 -88 -216 -105 -286 -105 -437 0 -106 4 -136 24 -199 l25 -74
-37 -71 c-40 -76 -109 -281 -128 -377 -26 -134 12 -244 120 -348 44 -43 73
-80 81 -104 6 -21 15 -112 19 -203 5 -143 4 -163 -9 -159 -8 2 -145 29 -305
60 -159 31 -300 59 -312 62 l-23 5 0 472 0 471 135 355 c78 205 133 364 131
375 -3 11 -20 35 -39 53 l-33 32 -119 -62 c-100 -52 -133 -75 -196 -139 -156
-158 -272 -340 -310 -486 -16 -62 -19 -107 -18 -223 1 -123 -2 -153 -19 -197
-80 -208 -227 -348 -405 -385 -49 -11 -55 -10 -92 15 -22 15 -69 38 -105 53
-103 42 -153 70 -187 106 -65 67 -77 140 -46 283 15 68 18 132 17 431 -1 241
-5 361 -13 386 -8 25 -30 50 -66 78 l-55 42 -47 -40 c-95 -79 -91 -65 -123
-417 -42 -455 -75 -568 -286 -996 -94 -190 -127 -249 -141 -248 -10 0 -52 10
-93 22 l-75 22 -7 45 c-11 72 -9 331 3 417 6 46 42 173 90 313 88 265 136 444
170 635 20 111 23 165 24 365 0 202 -3 251 -23 352 -13 70 -22 155 -22 212 0
88 25 318 51 463 l11 62 -210 373 c-115 205 -264 472 -332 592 l-124 219 77
73 c47 45 85 74 98 74 12 0 67 -24 123 -52z m11584 -815 c108 -65 214 -146
263 -201 24 -27 66 -99 100 -170 99 -209 190 -314 338 -391 100 -51 185 -77
306 -91 170 -19 395 -54 395 -61 0 -9 -67 -52 -138 -88 -102 -51 -217 -74
-347 -68 -128 6 -201 24 -305 75 -118 58 -193 137 -297 310 -148 246 -285 365
-456 394 -45 8 -69 18 -88 37 -23 25 -116 227 -108 235 12 11 199 65 227 66
21 0 58 -16 110 -47z m4513 -114 c35 -11 38 -15 43 -58 15 -118 58 -740 60
-857 1 -126 0 -132 -29 -189 -60 -118 -145 -153 -326 -136 -179 17 -288 50
-336 102 -60 66 -89 208 -73 363 19 182 35 227 147 407 33 52 73 124 91 161
55 113 143 194 237 219 36 10 134 3 186 -12z m4836 -30 c15 -6 66 -48 113 -93
152 -149 252 -198 400 -197 146 0 295 65 453 196 71 60 77 63 82 42 2 -12 18
-130 35 -262 48 -375 139 -995 280 -1917 322 -2100 418 -2911 482 -4078 15
-265 16 -1474 2 -1552 l-9 -46 -110 53 c-95 47 -130 72 -255 181 -80 70 -228
199 -330 288 -213 185 -450 413 -558 536 -252 288 -406 653 -467 1110 -13 91
-19 253 -25 600 -12 685 -30 878 -184 2025 -131 973 -146 1213 -146 2268 0
456 4 682 11 712 26 105 134 169 226 134z m-21414 -254 c95 -46 221 -147 286
-227 93 -115 170 -290 212 -486 30 -139 36 -408 15 -612 -20 -185 -71 -522
-91 -601 -39 -151 -111 -277 -307 -542 -162 -218 -250 -358 -292 -467 -16 -41
-33 -79 -36 -83 -8 -9 -87 107 -128 189 -89 177 -100 324 -39 539 50 181 61
257 54 410 -10 216 -63 410 -199 719 -170 386 -211 551 -174 695 49 192 241
394 463 487 78 33 139 28 236 -21z m8960 -478 c152 -152 190 -286 122 -435
-27 -58 -93 -162 -104 -162 -3 0 -39 154 -79 343 -41 188 -76 351 -79 361 -7
25 56 -23 140 -107z m8252 -796 c45 -20 100 -77 138 -142 59 -100 117 -336
117 -472 0 -54 -4 -64 -51 -133 -96 -139 -148 -166 -280 -146 -231 33 -488
232 -489 379 0 46 71 177 143 263 74 88 207 199 291 240 69 35 78 36 131 11z
m-10394 -140 c30 -10 84 -33 120 -50 36 -17 144 -51 239 -76 94 -24 173 -45
175 -47 2 -2 8 -38 14 -81 44 -316 -49 -457 -377 -571 -139 -48 -241 -103
-338 -180 -102 -82 -164 -149 -352 -377 -207 -254 -393 -436 -1277 -1248 -361
-333 -386 -359 -445 -472 -39 -74 -68 -113 -111 -153 -82 -76 -172 -144 -215
-162 -33 -14 -38 -14 -62 2 -84 54 -169 144 -276 292 l-38 52 26 44 c14 24 41
57 59 73 29 25 45 31 106 36 87 7 178 46 240 103 23 20 80 94 126 163 47 70
133 178 192 243 102 111 183 222 170 234 -7 8 -768 -449 -922 -553 -398 -268
-421 -287 -470 -387 -64 -131 -53 -265 38 -451 63 -128 73 -152 87 -220 15
-66 4 -118 -30 -155 -38 -40 -77 -39 -167 5 -39 19 -83 35 -97 35 -67 0 -345
-122 -481 -210 -189 -124 -287 -225 -518 -538 -112 -153 -151 -214 -210 -335
l-72 -148 -12 38 c-6 21 -26 93 -44 160 l-32 123 -64 20 c-37 11 -93 20 -131
20 -122 0 -188 -53 -261 -212 -66 -144 -141 -207 -247 -208 -61 0 -100 13
-225 74 -113 56 -186 71 -265 57 -120 -22 -178 -71 -445 -371 -169 -190 -538
-584 -597 -639 -20 -18 -61 -45 -90 -58 -109 -51 -250 -11 -372 105 -56 54
-60 61 -60 102 1 192 108 378 365 635 218 219 422 367 973 709 122 76 243 157
267 180 64 59 314 468 436 713 104 210 133 249 205 279 72 30 272 6 355 -42
78 -46 93 -118 46 -212 -14 -28 -92 -156 -172 -283 -80 -127 -145 -233 -143
-234 8 -8 174 27 246 53 102 36 177 81 258 156 85 77 135 143 238 314 302 501
613 841 1063 1161 148 105 169 142 252 458 49 186 100 328 148 410 37 63 109
123 223 184 177 94 267 155 442 296 503 408 529 423 834 482 99 19 230 55 381
105 126 42 232 76 235 76 4 0 -11 -37 -32 -82 -21 -46 -73 -184 -115 -308 -42
-125 -97 -265 -123 -314 -59 -113 -146 -206 -272 -296 -158 -112 -206 -189
-198 -320 3 -59 11 -87 33 -128 51 -94 49 -93 164 -17 469 308 853 690 1104
1096 81 132 140 247 161 319 9 30 30 131 45 223 51 299 118 369 292 308z
m3138 -112 c18 -44 32 -81 30 -83 -16 -14 -434 -165 -439 -159 -10 11 -40 103
-40 123 0 11 29 31 88 58 82 39 311 139 322 141 3 0 20 -35 39 -80z m6805
-991 c3 -13 6 -48 6 -79 l0 -56 -37 -6 c-59 -10 -332 -31 -337 -26 -2 2 -5 38
-8 80 l-3 76 170 15 c93 8 177 16 186 16 10 1 19 -8 23 -20z m-7303 -228 c254
-25 476 -76 894 -205 316 -97 459 -136 970 -264 727 -182 785 -194 1015 -211
80 -6 258 -22 395 -36 837 -83 1139 -74 1600 46 181 46 355 104 741 243 331
120 428 145 490 128 126 -34 219 -150 844 -1051 485 -699 790 -1113 880 -1192
132 -116 305 -182 764 -291 320 -76 348 -114 387 -517 12 -129 34 -188 97
-254 43 -45 107 -76 324 -157 433 -163 719 -203 1138 -159 638 67 1144 -53
1651 -391 129 -86 164 -116 298 -256 l153 -157 -115 -113 c-129 -127 -170
-151 -307 -180 -70 -15 -130 -18 -350 -17 -146 0 -308 5 -360 12 -341 42 -561
63 -670 65 -116 2 -129 0 -175 -23 -39 -20 -55 -36 -74 -73 -21 -43 -22 -51
-11 -96 16 -66 65 -122 171 -191 201 -132 529 -233 979 -300 224 -34 341 -36
495 -11 116 19 319 41 384 41 l24 0 -6 -116 c-7 -147 -23 -182 -150 -324 -138
-154 -415 -422 -469 -453 -66 -39 -159 -60 -223 -52 -75 9 -127 26 -283 94
-491 214 -1161 425 -2412 761 -228 61 -545 147 -704 191 -161 45 -319 83 -357
86 -130 11 -213 -37 -279 -160 -43 -82 -89 -110 -223 -138 -117 -24 -168 -24
-308 1 -63 11 -118 20 -122 20 -4 0 -7 -29 -5 -65 l3 -66 98 -34 c54 -18 196
-81 317 -139 371 -180 494 -219 695 -220 95 -1 140 4 217 23 l97 24 55 -27
c80 -39 160 -122 181 -188 10 -29 30 -79 46 -111 76 -155 158 -197 389 -197
266 0 465 -89 687 -307 l78 -78 -50 -7 c-27 -3 -149 -10 -270 -13 -182 -6
-233 -4 -294 9 -94 20 -200 73 -274 136 -69 59 -87 65 -187 65 -109 0 -127 -7
-150 -61 -55 -128 -66 -340 -20 -389 31 -33 94 -70 147 -85 36 -11 52 -10 125
10 64 17 101 21 165 18 129 -7 199 -46 371 -211 165 -157 221 -192 307 -191
94 0 161 47 298 207 97 114 173 175 282 227 134 64 183 73 395 67 149 -3 248
-13 510 -51 692 -99 725 -106 1293 -268 225 -64 357 -106 357 -114 0 -7 -29
-42 -63 -77 -82 -83 -179 -132 -302 -154 -93 -16 -110 -16 -812 3 -400 11
-496 -11 -943 -218 l-180 -83 6 -35 c12 -62 44 -157 57 -169 8 -6 84 -13 183
-17 186 -7 335 4 492 37 144 30 256 35 324 15 66 -19 145 -85 185 -155 36 -64
70 -99 109 -111 28 -9 68 -4 240 29 248 49 356 84 481 155 157 90 231 96 376
29 80 -37 84 -38 197 -37 101 1 125 4 196 30 186 68 359 203 422 330 45 89 59
186 76 515 22 422 36 664 43 741 5 63 3 70 -30 125 -71 119 -109 250 -142 483
-48 351 -64 427 -115 556 -24 60 -30 89 -30 152 1 76 16 221 24 230 3 2 60 -1
127 -7 162 -15 198 -32 315 -148 295 -293 449 -666 444 -1073 -6 -399 -8 -357
28 -445 18 -44 67 -142 108 -217 41 -76 74 -139 74 -142 0 -2 -14 -9 -30 -16
-17 -7 -44 -28 -60 -47 -53 -59 -39 -146 40 -248 52 -67 62 -97 62 -180 0 -59
-6 -85 -39 -165 -72 -172 -113 -337 -134 -540 -15 -140 -7 -602 15 -855 8 -99
20 -263 25 -365 11 -201 29 -317 90 -600 71 -328 82 -405 88 -585 4 -138 2
-188 -13 -265 -29 -155 -29 -197 -1 -270 13 -36 59 -182 102 -325 43 -143 79
-261 80 -263 5 -7 269 -76 393 -102 204 -43 323 -97 474 -219 142 -113 241
-232 300 -357 38 -81 39 -128 5 -186 -47 -80 -53 -83 -191 -82 -129 1 -219 13
-496 69 -215 43 -359 57 -471 45 -96 -10 -129 -19 -184 -48 -127 -67 -176
-173 -176 -377 0 -66 39 -687 86 -1380 47 -693 94 -1399 106 -1568 11 -170 18
-314 16 -321 -3 -7 -18 -16 -34 -19 -15 -4 -76 -19 -135 -35 l-107 -29 35 51
c51 75 74 160 74 270 0 104 -19 192 -80 371 -88 261 -84 232 -85 600 -1 266
-6 368 -23 525 -25 228 -28 457 -7 610 19 136 19 390 0 557 -15 139 -87 622
-105 709 -14 66 -58 135 -111 174 -61 44 -149 67 -338 90 -315 39 -516 75
-811 147 -272 66 -356 64 -406 -12 -24 -37 -28 -144 -11 -265 9 -58 19 -155
23 -215 l7 -110 -51 -16 -50 -16 -67 138 c-51 106 -71 160 -86 236 -23 116
-34 147 -67 192 -43 58 -93 72 -286 81 -94 5 -247 20 -339 34 -342 53 -444 52
-1317 -4 -256 -17 -519 -31 -585 -32 -111 -1 -126 1 -209 30 -120 43 -162 49
-451 67 -259 16 -312 21 -804 81 -368 45 -484 45 -551 0 l-43 -28 -36 20
c-131 73 -296 82 -588 33 -204 -35 -304 -40 -442 -21 -86 12 -101 18 -178 66
-203 127 -450 174 -809 154 -93 -6 -236 -15 -319 -20 -82 -6 -220 -8 -305 -4
-269 12 -416 -16 -855 -160 -446 -145 -626 -179 -840 -156 l-99 10 -58 -57
c-57 -56 -58 -58 -35 -70 55 -31 217 -75 318 -85 118 -13 232 -6 554 32 288
35 449 21 607 -52 61 -28 67 -33 63 -57 -3 -14 -14 -107 -26 -206 -26 -225
-54 -376 -81 -429 -11 -23 -71 -90 -132 -151 -127 -124 -156 -172 -156 -254 0
-130 95 -208 355 -291 138 -44 249 -57 372 -43 118 13 206 45 251 89 29 29 32
37 32 96 0 75 -30 198 -68 278 -14 30 -63 110 -109 178 -95 140 -139 222 -159
296 -15 55 -18 236 -7 399 l6 97 900 0 899 0 -37 -45 -37 -46 68 -117 c97
-166 169 -307 194 -382 26 -76 30 -195 10 -280 -32 -139 -93 -214 -295 -367
-135 -102 -216 -182 -240 -239 -18 -42 -96 -346 -90 -352 2 -2 138 41 302 97
308 103 391 125 446 114 87 -16 137 -85 137 -189 0 -114 -78 -535 -120 -647
-54 -145 -136 -175 -297 -111 -56 22 -76 26 -137 22 -43 -3 -92 -14 -124 -28
-48 -21 -63 -36 -155 -159 -56 -75 -162 -224 -235 -331 -73 -107 -176 -256
-228 -330 -52 -74 -133 -191 -182 -260 -96 -138 -259 -311 -335 -354 -135 -79
-264 -105 -567 -115 -207 -7 -241 -10 -283 -29 -63 -28 -82 -70 -72 -156 8
-77 58 -232 101 -318 l34 -67 447 -3 c416 -3 450 -4 483 -22 38 -20 162 -122
422 -349 l167 -145 -388 -221 -387 -221 -274 -30 c-150 -17 -275 -28 -278 -25
-3 2 -9 53 -13 112 -11 130 -18 168 -76 396 l-46 177 -43 0 c-50 0 -43 22 -74
-230 -40 -325 -72 -471 -107 -493 -5 -3 -45 -8 -89 -12 l-82 -7 -25 44 c-33
54 -44 127 -97 593 -22 198 -47 401 -56 450 -14 83 -84 310 -101 326 -5 4 -33
10 -64 14 l-55 7 -11 -34 c-6 -18 -27 -78 -46 -134 -20 -56 -39 -132 -42 -170
-4 -38 1 -251 10 -473 9 -222 14 -422 11 -444 -4 -21 -15 -56 -25 -76 -22 -43
-104 -137 -134 -152 -18 -10 -273 -38 -355 -39 -44 0 -112 63 -142 133 -30 67
-29 146 1 252 42 147 27 312 -38 424 -36 62 -98 127 -164 172 -78 53 -156 142
-195 222 -35 74 -53 146 -114 447 -21 107 -62 305 -90 440 -64 308 -93 485
-125 775 -14 127 -55 433 -90 680 -79 550 -100 725 -120 970 -19 232 -20 602
-4 826 12 164 12 166 -10 213 -13 26 -44 69 -70 95 -45 46 -52 49 -157 74
-158 37 -245 47 -426 47 -181 0 -319 -17 -484 -60 -201 -52 -417 -142 -458
-191 -33 -38 -64 -125 -78 -213 -10 -63 -8 -88 11 -197 44 -240 36 -382 -24
-485 -37 -63 -133 -146 -219 -188 -84 -42 -116 -76 -146 -153 -47 -124 -35
-179 55 -261 62 -57 200 -132 243 -132 16 0 80 18 143 40 l114 39 8 -47 c4
-26 25 -225 47 -442 57 -554 125 -1101 276 -2215 77 -566 81 -591 145 -935 55
-294 66 -378 52 -430 l-9 -35 -110 -6 c-60 -4 -110 -6 -111 -5 -1 1 -18 184
-38 406 -75 857 -121 1293 -141 1332 -15 29 -179 193 -193 193 -14 0 -149
-168 -173 -215 -20 -39 -22 -59 -22 -160 1 -63 9 -196 19 -295 20 -214 16
-299 -21 -364 -28 -51 -145 -210 -155 -211 -3 0 -50 45 -103 100 -110 113
-140 167 -206 369 -73 223 -100 410 -100 691 0 211 12 350 37 430 20 64 146
255 321 488 227 302 273 453 167 552 -24 23 -35 25 -113 25 -86 0 -89 -1 -202
-57 -63 -32 -176 -89 -250 -128 -74 -39 -157 -77 -184 -85 -51 -15 -296 -22
-296 -8 0 4 10 85 21 181 12 95 20 174 18 176 -140 99 -228 151 -276 161 -17
3 -68 1 -113 -6 -221 -32 -344 58 -445 327 -41 110 -117 195 -242 270 -112 67
-212 65 -284 -7 -50 -50 -71 -123 -104 -353 -14 -99 -27 -181 -28 -183 -2 -1
-47 62 -101 142 -123 181 -208 274 -284 312 -53 26 -65 28 -177 28 -102 -1
-201 -13 -336 -41 l-26 -5 33 258 c93 722 130 871 247 999 47 51 133 104 169
104 31 0 115 -88 148 -153 26 -52 30 -71 30 -141 0 -45 -5 -120 -11 -169 -18
-152 13 -276 90 -360 76 -82 201 -121 353 -110 127 9 242 -28 333 -107 97 -84
213 -120 320 -101 124 22 296 134 342 220 29 56 30 131 2 206 -11 31 -64 127
-116 213 -210 345 -252 423 -302 565 -52 149 -39 216 50 251 23 9 123 28 223
42 224 31 1162 172 1194 179 17 4 32 23 53 70 16 36 29 69 29 74 0 6 -127 9
-332 8 -219 -1 -372 3 -448 11 -202 23 -643 91 -695 106 -86 27 -21 40 -1080
-213 -231 -55 -517 -120 -635 -145 -118 -25 -323 -68 -455 -96 -299 -63 -620
-145 -796 -203 -200 -66 -384 -141 -789 -322 -1227 -548 -1420 -627 -1855
-760 -880 -269 -935 -290 -1471 -561 -521 -265 -546 -275 -1989 -810 -538
-200 -779 -302 -1135 -482 -190 -96 -403 -201 -475 -232 -274 -122 -751 -288
-1150 -400 -297 -84 -417 -156 -508 -307 -61 -100 -145 -144 -487 -253 -340
-108 -424 -138 -555 -197 -202 -92 -347 -134 -520 -148 -72 -6 -109 -1 -345
45 -395 77 -357 66 -381 112 -34 66 -59 210 -69 387 -10 192 -24 245 -78 292
-52 46 -138 83 -195 83 -47 1 -52 -2 -97 -51 -61 -66 -132 -191 -206 -361 -43
-101 -61 -132 -73 -129 -215 57 -1181 333 -1181 337 0 21 243 175 539 342 679
382 1432 799 1494 828 48 22 87 31 176 40 313 30 622 125 996 304 83 40 296
152 475 248 179 96 375 201 435 232 61 31 139 72 173 91 50 28 75 35 117 35
77 0 210 26 312 60 167 55 272 110 583 300 96 59 218 130 270 158 217 116
1345 605 1956 848 456 180 604 252 808 388 177 119 261 168 326 191 50 18 324
82 495 115 180 35 248 57 490 160 431 184 840 372 1575 725 1039 499 1099 526
1460 645 228 75 424 151 865 334 715 298 1113 457 1280 511 72 24 258 71 415
105 186 40 306 71 346 89 66 31 98 57 394 316 512 448 677 543 1040 599 293
45 919 64 1100 33 280 -48 518 -163 673 -325 147 -154 175 -179 235 -209 117
-59 248 -68 348 -24 27 12 78 50 114 85 123 119 224 178 365 215 154 41 249
43 1435 30 1573 -17 1437 -18 1485 8 103 55 129 123 145 377 9 139 43 476 56
554 5 32 6 33 52 30 l47 -3 22 -105 c12 -58 36 -202 54 -320 63 -434 127 -599
256 -661 85 -41 189 -28 338 43 51 24 73 28 142 28 104 0 285 -31 441 -75 154
-44 237 -62 332 -69 119 -10 677 -35 1150 -51 239 -8 559 -20 710 -25 151 -6
428 -15 615 -20 356 -9 406 -15 502 -61 59 -28 122 -83 181 -155 59 -71 89
-87 259 -138 196 -58 508 -202 641 -296 103 -73 111 -93 112 -281 l0 -147 -87
25 c-135 38 -169 57 -258 142 -134 129 -248 181 -394 181 -124 0 -203 -30
-336 -128 -172 -127 -334 -159 -542 -107 l-72 18 -57 -28 c-72 -35 -288 -241
-315 -300 -21 -45 -26 -175 -9 -219 5 -14 58 -75 117 -135 88 -89 121 -116
178 -143 74 -35 102 -37 330 -27 61 2 85 -3 190 -40 201 -72 260 -90 316 -97
l54 -7 -71 74 c-39 41 -82 92 -97 114 -31 48 -65 166 -73 257 -9 86 13 132
105 226 290 297 608 239 794 -146 45 -93 56 -157 38 -229 -7 -27 -48 -122 -91
-213 -104 -218 -151 -360 -120 -360 7 0 77 33 154 74 179 94 279 126 412 133
177 10 346 -29 678 -156 254 -98 473 -152 779 -191 219 -28 244 -27 296 10 23
17 77 67 119 112 87 90 252 228 312 258 47 24 110 26 152 4 17 -9 87 -71 157
-137 88 -85 150 -135 203 -165 102 -58 111 -59 125 -25 6 15 34 80 62 143 71
162 71 166 -31 473 -45 136 -86 247 -91 247 -26 0 -326 -156 -409 -213 -141
-96 -210 -108 -262 -46 -32 38 -43 79 -57 214 -18 180 1 365 52 498 40 104
152 191 308 238 65 19 86 21 192 15 132 -8 182 1 228 40 61 51 67 132 32 419
-28 226 -74 495 -116 685 -57 254 -57 255 -139 335 -118 115 -283 188 -601
265 -323 78 -375 82 -489 31 -40 -17 -44 -22 -49 -67 -15 -111 -20 -569 -8
-659 21 -151 30 -184 68 -225 89 -99 268 -63 392 79 31 35 112 123 182 194
l125 129 47 -23 c26 -13 47 -30 47 -38 0 -54 -35 -343 -51 -426 -36 -178 -185
-455 -621 -1158 -164 -262 -184 -291 -231 -322 -89 -59 -95 -58 -269 32 -640
332 -943 657 -1066 1141 -31 122 -38 134 -108 188 -100 77 -407 358 -459 422
-30 35 -75 107 -100 161 -63 128 -119 213 -195 294 -69 74 -193 161 -280 198
-43 18 -86 53 -195 159 -226 218 -367 336 -575 481 -495 344 -1136 601 -1865
748 -339 68 -525 85 -849 78 -274 -5 -403 -22 -611 -77 -261 -69 -421 -138
-605 -260 -159 -106 -210 -130 -277 -130 -83 0 -113 27 -300 279 -72 96 -90
113 -228 214 -134 98 -1056 716 -1113 746 -13 7 -101 16 -210 22 -480 24 -800
96 -1108 249 l-141 71 -57 -21 c-31 -12 -56 -25 -56 -29 0 -4 7 -30 16 -57 14
-41 38 -70 149 -179 107 -105 138 -143 164 -196 50 -103 46 -151 -22 -294
-193 -399 -368 -653 -533 -771 -164 -117 -543 -263 -854 -329 -482 -102 -877
-110 -1140 -24 -450 148 -632 583 -530 1270 40 272 62 326 225 554 115 161
167 256 186 341 11 51 11 56 -9 77 -37 39 -106 56 -242 61 -332 12 -541 103
-1054 456 -180 124 -312 193 -468 244 -310 102 -648 117 -1196 55 -201 -23
-256 -35 -543 -125 -276 -85 -332 -106 -478 -175 -234 -111 -363 -198 -651
-438 -436 -363 -811 -623 -1765 -1226 -291 -184 -340 -219 -415 -294 -220
-220 -407 -612 -465 -971 -21 -132 -19 -273 6 -405 18 -95 22 -159 26 -475 5
-455 12 -431 -122 -443 -49 -4 -185 -7 -301 -5 -265 4 -267 5 -321 160 -31 88
-34 197 -8 334 50 273 147 455 353 664 156 158 167 178 302 543 l51 139 -48
51 c-26 29 -52 51 -58 51 -8 -1 -848 -299 -1222 -433 l-111 -40 -27 67 c-15
36 -23 68 -18 69 4 2 337 184 738 406 402 221 918 506 1148 632 l418 230 -6
29 c-3 17 -10 47 -15 67 l-10 37 -168 31 c-92 18 -175 34 -184 37 -15 5 -17
17 -15 92 l2 87 -48 68 c-65 91 -151 182 -185 196 -34 14 -114 -4 -337 -76
-369 -119 -600 -234 -1375 -683 -387 -224 -697 -393 -1115 -606 -385 -196
-453 -227 -756 -339 -128 -48 -245 -93 -258 -100 -29 -14 -60 6 384 -245 160
-89 294 -167 299 -171 11 -9 -27 -62 -81 -113 -81 -76 -231 -124 -353 -111
-99 11 -174 38 -399 144 -386 183 -476 207 -568 151 -49 -30 -79 -106 -109
-280 -59 -346 -116 -494 -234 -604 -89 -83 -195 -113 -368 -103 -136 8 -209
22 -582 112 -411 100 -523 118 -730 119 -152 1 -169 -1 -215 -22 -65 -30 -98
-63 -127 -126 -20 -45 -23 -69 -25 -198 -2 -124 -5 -153 -22 -185 -21 -40 -76
-101 -126 -138 -38 -29 -199 -92 -483 -189 -275 -94 -398 -143 -527 -209 -134
-68 -228 -162 -395 -399 -68 -98 -127 -174 -131 -170 -3 4 -21 81 -38 172 -55
280 -45 252 -102 284 l-51 28 -23 -23 c-13 -13 -161 -177 -330 -364 l-307
-340 -317 3 c-414 5 -536 -10 -686 -84 -161 -79 -285 -231 -328 -402 l-13 -53
-56 59 c-98 103 -142 216 -143 367 0 178 44 292 244 625 229 379 776 1214 931
1420 275 364 631 713 1040 1021 420 316 905 601 1683 989 520 259 623 296 707
253 81 -42 102 -142 93 -438 l-6 -201 149 -32 c282 -60 373 -65 485 -23 31 12
140 80 244 151 393 273 540 406 644 585 141 242 152 257 280 385 140 139 314
283 466 385 l99 67 66 -4 c84 -7 176 -48 272 -123 246 -193 487 -205 746 -38
32 20 136 74 232 120 96 47 190 96 207 109 29 22 39 44 83 184 81 253 94 274
278 445 176 164 262 226 360 261 117 41 252 30 374 -32 103 -52 180 -29 419
126 537 345 639 413 751 492 289 204 502 398 718 653 143 169 444 466 532 525
83 55 160 82 252 88 157 10 242 -26 546 -228 118 -78 218 -145 222 -149 11
-10 -36 -175 -86 -298 -84 -209 -165 -355 -421 -759 -95 -149 -196 -311 -225
-360 l-52 -89 53 -47 c30 -26 59 -46 66 -44 18 7 193 135 251 184 83 70 217
254 646 889 132 197 241 346 277 383 118 120 233 147 392 94 71 -24 81 -25
120 -12 39 12 42 16 48 58 4 25 12 140 18 255 32 575 58 795 121 1006 37 122
134 222 345 352 55 33 228 148 385 253 223 150 297 205 338 252 l52 61 573
287 c608 305 837 426 1062 562 329 199 409 239 599 296 221 67 460 89 697 66z
m-7654 -402 c46 -16 74 -38 135 -99 42 -43 90 -85 105 -93 75 -38 377 -91 608
-106 93 -6 170 -12 172 -13 1 -2 -50 -61 -113 -132 -371 -417 -542 -629 -569
-706 -9 -24 -25 -122 -36 -218 -11 -96 -21 -176 -22 -178 -6 -5 -421 378 -517
477 -94 96 -96 98 -180 123 -202 62 -292 166 -276 322 7 78 48 235 86 334 46
118 82 154 228 223 193 92 273 106 379 66z m-1358 -504 c103 -30 195 -78 221
-114 24 -34 38 -96 33 -141 -3 -19 -18 -79 -33 -134 -47 -165 -47 -161 -2
-263 55 -120 74 -200 75 -302 1 -167 -54 -284 -207 -435 -69 -68 -134 -121
-204 -165 -340 -213 -526 -416 -689 -750 -34 -69 -77 -144 -97 -167 -36 -41
-37 -42 -89 -36 -29 3 -55 9 -59 12 -12 11 10 509 27 628 19 126 62 261 112
353 19 35 82 138 140 229 143 223 168 279 188 419 9 63 14 116 11 119 -8 8
-212 -54 -264 -81 -58 -30 -150 -118 -270 -259 -105 -123 -99 -123 -144 3 -20
57 -23 83 -23 205 1 132 2 145 32 222 40 104 88 177 166 250 62 58 81 68 212
119 89 35 188 94 278 167 87 70 212 134 287 146 79 14 200 3 299 -25z m-1540
-3939 c60 -99 95 -168 98 -194 8 -61 -34 -127 -172 -268 l-120 -123 -113 101
c-63 56 -122 115 -132 131 -17 28 -17 33 -3 67 25 60 73 124 213 286 74 85
135 155 136 155 0 0 43 -70 93 -155z m-1372 -729 c-12 -121 -72 -195 -241
-299 -55 -34 -125 -85 -155 -114 l-53 -51 4 81 c9 168 69 232 368 395 41 23
77 42 79 42 2 0 1 -24 -2 -54z m28729 -5416 c182 -282 267 -729 193 -1018 -35
-139 -98 -219 -196 -248 -59 -18 -87 -18 -149 1 -73 21 -125 72 -218 214 -159
240 -308 350 -556 407 -94 21 -153 67 -286 221 l-116 134 6 52 7 53 167 42
c92 23 190 42 217 42 28 0 89 -11 135 -24 121 -35 192 -46 289 -46 164 1 248
37 366 156 44 44 83 81 88 82 4 1 28 -30 53 -68z m-36089 -2338 c-87 -218 -97
-292 -107 -857 -11 -578 -21 -654 -100 -771 -85 -123 -237 -158 -387 -90 -102
47 -193 167 -179 238 8 43 105 263 238 543 115 240 180 389 322 735 42 102
104 234 137 294 l61 108 25 -55 25 -56 -35 -89z m17799 133 c19 -5 25 -21 43
-118 47 -253 53 -358 25 -462 -25 -98 -95 -196 -195 -275 -34 -28 -37 -28 -79
-16 -24 7 -46 18 -48 24 -2 7 38 186 88 399 119 504 108 465 128 459 9 -2 27
-7 38 -11z m9979 -79 c90 -42 230 -164 300 -262 121 -169 265 -254 569 -335
315 -84 371 -103 495 -166 148 -75 177 -79 226 -30 37 37 52 81 65 195 11 94
36 165 93 257 49 81 61 85 152 58 l60 -19 3 -81 c1 -44 -4 -127 -12 -183 -13
-83 -22 -112 -51 -158 -19 -32 -35 -61 -35 -66 0 -4 10 -21 21 -38 37 -51 69
-157 69 -228 0 -118 -16 -161 -167 -451 -33 -64 -70 -152 -83 -200 -24 -90
-100 -453 -100 -480 0 -9 57 -65 126 -124 170 -147 271 -256 280 -301 9 -51
-2 -120 -28 -168 -34 -61 -81 -81 -193 -81 -80 0 -96 3 -145 29 -83 43 -212
130 -324 220 -266 211 -283 264 -183 557 39 113 63 203 76 289 21 132 41 363
41 470 l0 64 -62 61 c-83 81 -200 137 -466 225 -310 102 -411 110 -466 37 -24
-33 -25 -62 -9 -657 11 -390 19 -469 198 -2003 41 -351 75 -642 75 -646 0 -10
-80 -44 -87 -37 -6 6 -45 138 -84 281 -28 106 -59 308 -134 880 -98 745 -237
1566 -320 1881 -34 128 -152 525 -159 531 -1 2 -38 -2 -80 -9 l-77 -12 6 -50
c3 -28 32 -373 65 -766 142 -1687 150 -1775 186 -1930 8 -36 19 -139 24 -230
6 -91 15 -190 21 -220 25 -123 110 -244 214 -306 56 -32 80 -71 106 -170 18
-74 40 -344 27 -344 -6 0 -496 -77 -539 -84 -49 -9 -45 -42 -115 934 -69 964
-113 1536 -120 1569 -4 14 -26 85 -50 156 l-43 130 -15 285 c-9 157 -22 461
-31 675 -8 215 -17 442 -21 506 l-6 117 134 4 c110 3 141 8 183 27 99 44 144
116 165 263 11 77 37 129 72 146 38 18 100 13 153 -12z m4376 -174 c41 -21
148 -77 239 -124 91 -47 230 -112 310 -143 452 -177 517 -277 405 -623 -19
-59 -49 -130 -66 -157 -46 -72 -156 -175 -268 -250 -244 -162 -470 -222 -597
-157 -168 86 -322 302 -364 512 -10 52 -26 187 -35 300 -9 113 -17 210 -19
215 -4 15 132 345 160 388 56 86 124 97 235 39z m-10805 -258 c37 -73 252
-1241 231 -1256 -6 -3 -7 -25 -4 -50 5 -37 2 -53 -19 -89 -141 -250 -187 -503
-164 -904 6 -99 15 -295 20 -435 22 -541 54 -765 205 -1410 109 -466 129 -572
129 -675 0 -73 -4 -98 -21 -131 l-22 -42 -83 -6 c-46 -3 -199 -13 -341 -22
-234 -14 -261 -14 -282 0 -35 23 -64 56 -88 101 -20 36 -22 54 -21 195 3 298
50 581 149 885 103 317 115 546 61 1180 -31 368 -79 1534 -92 2266 l-7 354 39
51 c21 28 59 74 84 101 l45 51 80 -62 c51 -40 88 -77 101 -102z m9244 139 c1
-10 7 -83 14 -163 8 -80 13 -146 12 -146 0 -1 -37 -8 -81 -16 l-81 -14 -38
147 c-21 80 -39 155 -39 165 -2 16 9 21 78 30 120 17 135 17 135 -3z m-16037
-653 c34 -27 71 -104 103 -215 14 -49 59 -190 100 -312 77 -230 85 -274 65
-378 -6 -35 -10 -40 -31 -37 -13 1 -56 18 -95 37 l-71 34 -57 118 c-32 65
-106 237 -167 383 l-109 265 42 38 c51 45 131 87 168 87 14 0 38 -9 52 -20z
m16593 -33 c39 -47 54 -102 48 -187 -24 -366 -45 -651 -50 -678 -5 -31 -6 -32
-47 -26 -196 27 -263 108 -224 269 9 35 30 98 47 140 16 42 30 78 30 81 0 2
-117 4 -261 4 l-260 0 7 23 c57 185 410 424 613 414 60 -3 66 -6 97 -40z
m-15169 -19 c38 -41 49 -61 83 -162 l27 -81 -93 -920 c-156 -1551 -252 -2435
-314 -2898 -43 -317 -48 -339 -87 -404 -61 -102 -37 -95 -302 -87 l-233 7 -9
24 c-19 51 -10 160 26 300 45 176 84 257 174 363 123 144 195 320 220 540 6
47 15 159 21 250 13 191 23 286 130 1140 141 1130 139 1102 76 1299 -66 205
-93 421 -62 494 31 74 180 164 277 166 27 1 42 -6 66 -31z m20076 -185 c46
-97 48 -106 187 -809 77 -391 140 -721 140 -732 0 -19 -20 -28 -162 -72 -90
-28 -191 -60 -226 -72 -35 -11 -65 -18 -68 -15 -2 2 -31 107 -63 233 -32 126
-97 360 -144 519 -125 421 -131 447 -123 524 23 222 181 457 340 507 69 21 69
21 119 -83z m-22509 5 c16 -121 54 -618 68 -906 l3 -54 -120 -34 c-158 -45
-272 -101 -323 -159 -54 -62 -66 -111 -59 -248 5 -95 16 -154 76 -387 38 -151
104 -435 146 -630 180 -841 208 -928 410 -1260 118 -196 166 -294 210 -430 20
-63 43 -134 50 -157 l13 -42 -32 -11 c-34 -11 -96 -9 -751 26 -251 13 -303 18
-319 32 -29 27 -63 102 -75 167 -15 81 -14 338 4 600 22 344 27 752 17 1358
-5 307 -11 560 -13 562 -2 1 -35 5 -73 6 l-70 4 -23 -150 c-38 -252 -52 -402
-78 -860 -13 -242 -36 -638 -50 -880 -14 -242 -30 -485 -35 -539 -12 -118 -42
-191 -91 -228 -33 -23 -38 -24 -129 -17 -52 4 -112 8 -132 8 -34 1 -40 5 -68
54 -39 68 -38 103 4 258 58 210 135 856 146 1234 7 232 11 271 35 364 64 256
89 521 66 721 -7 58 -28 173 -48 255 -39 168 -41 234 -7 301 48 92 137 121
414 133 129 6 231 17 300 31 139 28 237 56 266 75 30 19 95 152 101 207 3 29
-2 64 -17 108 -24 72 -23 125 6 370 21 174 12 160 99 160 l73 0 6 -42z m3079
-1010 c100 -405 125 -539 136 -752 12 -208 22 -252 112 -468 75 -182 111 -311
134 -484 24 -181 44 -585 50 -990 3 -209 10 -432 16 -497 5 -64 6 -136 3 -158
l-7 -41 -401 7 c-229 4 -405 11 -411 16 -11 11 -29 805 -29 1279 0 265 3 315
27 490 34 248 40 325 77 945 47 802 45 777 82 878 l32 87 51 0 51 0 77 -312z
m13717 171 c82 -21 129 -74 170 -194 52 -151 -7 -342 -148 -478 l-40 -39 -15
49 c-77 238 -137 470 -137 524 0 47 22 104 53 137 22 24 30 24 117 1z m2902
-69 c50 -38 60 -87 69 -315 4 -115 17 -304 28 -420 33 -343 36 -430 17 -505
-20 -76 -78 -188 -141 -270 l-45 -58 -312 -76 c-542 -131 -683 -165 -686 -161
-8 8 -22 83 -22 120 0 22 -12 75 -26 117 l-26 78 -48 0 c-56 0 -50 12 -80
-148 -24 -130 -54 -218 -78 -231 -9 -5 -82 -23 -162 -40 -80 -18 -150 -34
-157 -36 -14 -5 -9 41 18 143 32 123 60 165 218 327 208 214 282 319 327 471
26 86 24 245 -4 347 -22 78 -22 79 -3 121 10 24 36 62 56 85 l37 41 89 0 c145
0 221 37 414 200 143 121 196 156 302 196 105 40 177 45 215 14z m-1820 -188
c180 -219 178 -267 -26 -489 -92 -100 -126 -151 -158 -240 -19 -51 -22 -80
-22 -233 l-1 -175 -32 -67 c-55 -117 -163 -205 -380 -311 -102 -50 -111 -52
-188 -52 -70 0 -87 4 -133 29 -70 39 -157 134 -214 232 -25 43 -76 114 -112
156 l-65 77 87 -6 c112 -7 382 12 449 32 77 23 142 72 190 142 51 76 85 165
158 404 67 223 79 248 146 330 53 65 227 239 238 239 4 0 32 -31 63 -68z
m-5152 -579 c42 -22 59 -40 83 -83 27 -47 32 -66 35 -145 3 -56 -2 -134 -13
-201 -19 -127 -113 -585 -120 -593 -3 -3 -40 12 -82 33 -220 109 -356 289
-432 575 -65 242 18 365 287 421 127 27 179 25 242 -7z m-15809 -483 c78 -16
144 -30 146 -30 1 0 3 -29 3 -63 l0 -64 -157 -21 c-278 -38 -275 -38 -312 -7
-17 15 -45 47 -62 72 l-31 45 23 25 c13 14 42 39 64 55 38 29 44 30 112 24 39
-3 135 -19 214 -36z m18786 -184 c24 -22 47 -54 53 -70 16 -53 57 -292 85
-508 l28 -206 -59 -96 c-44 -72 -65 -96 -81 -98 -13 -1 -29 -2 -37 -2 -19 -1
-120 125 -151 189 -38 77 -55 218 -55 463 0 240 1 242 76 348 l47 65 26 -23
c14 -12 45 -40 68 -62z m-19756 -250 c3 -40 -3 -236 -18 -521 l-17 -330 29
-185 c15 -102 31 -188 34 -192 6 -7 55 19 318 173 83 49 155 89 158 89 11 0
124 -244 138 -300 17 -67 10 -92 -43 -153 -31 -35 -44 -43 -67 -40 -15 2 -183
19 -373 38 -387 40 -369 34 -416 127 -22 43 -24 59 -24 185 0 190 18 733 31
933 11 186 12 186 98 266 l55 52 48 -66 c26 -35 48 -70 49 -76z m-2517 -591
c21 -181 40 -349 43 -372 l6 -43 -192 0 -192 0 7 23 c27 88 280 734 285 729 4
-4 23 -155 43 -337z m30445 -1162 c39 -30 60 -64 77 -123 30 -109 15 -176 -48
-223 -18 -14 -76 -41 -128 -62 -253 -99 -436 -246 -521 -420 -57 -118 -71
-179 -76 -352 -6 -161 5 -285 37 -443 11 -52 344 -1384 741 -2960 396 -1576
721 -2879 721 -2897 0 -46 -31 -91 -80 -115 -36 -17 -55 -20 -105 -15 -34 3
-82 13 -106 22 -24 8 -1469 938 -3210 2067 -1741 1128 -3187 2060 -3213 2070
-90 34 -164 16 -190 -46 -7 -17 -12 -58 -11 -91 2 -76 932 -3784 993 -3960 83
-241 205 -440 334 -547 73 -62 192 -120 301 -149 116 -31 374 -37 555 -14 122
15 136 15 175 1 62 -24 94 -64 116 -143 11 -37 19 -81 19 -98 0 -44 -40 -107
-80 -128 -20 -10 -318 -72 -685 -142 l-650 -125 -645 -200 c-355 -110 -659
-200 -675 -200 -38 0 -100 41 -119 79 -26 49 -49 158 -42 196 11 55 69 107
156 140 317 118 524 302 595 528 56 177 56 431 0 702 -35 172 -1099 4397
-1136 4511 -66 207 -152 384 -245 504 -107 139 -235 219 -406 254 -89 18 -277
21 -378 5 -61 -9 -74 -8 -113 9 -54 24 -82 62 -102 138 -21 80 -21 137 2 177
38 65 46 67 544 151 l464 78 465 153 c256 85 481 157 500 160 44 8 154 -9 234
-36 98 -33 249 -110 416 -211 85 -52 1170 -753 2410 -1558 1240 -805 2280
-1477 2311 -1493 142 -74 239 -30 239 108 0 41 -96 439 -351 1453 -193 769
-367 1444 -386 1502 -42 126 -115 284 -175 377 -207 318 -512 418 -1064 352
-112 -14 -140 -8 -195 39 -33 27 -69 130 -69 197 0 47 27 95 72 128 21 16 183
51 687 149 l659 128 639 200 c674 210 687 213 742 173z m-36509 -704 c57 -17
130 -78 162 -135 28 -50 37 -114 448 -3205 231 -1735 430 -3208 441 -3274 46
-272 129 -562 210 -732 92 -192 253 -386 438 -527 106 -79 155 -136 171 -197
9 -33 7 -53 -11 -117 -26 -94 -50 -136 -98 -167 -76 -50 -42 -59 -846 218
l-740 254 -745 178 c-441 104 -755 184 -770 194 -39 28 -70 80 -70 119 0 19 9
65 20 103 34 114 93 149 252 149 297 0 464 116 528 366 27 104 42 307 35 454
-12 236 -104 1026 -126 1085 -23 62 -81 124 -142 154 -23 11 -514 158 -1092
327 -1142 333 -1154 336 -1252 299 -26 -10 -67 -37 -92 -59 -61 -56 -552 -670
-623 -781 -101 -156 -148 -294 -148 -435 0 -163 55 -277 209 -431 110 -109
213 -188 388 -296 123 -75 151 -101 179 -168 13 -33 13 -42 -2 -98 -33 -121
-84 -177 -162 -177 -17 0 -279 90 -584 199 l-554 199 -585 132 c-321 72 -594
138 -607 146 -61 40 -78 125 -43 226 27 78 44 101 96 127 41 20 54 22 133 16
56 -5 110 -3 147 5 89 17 231 90 347 177 109 81 422 387 573 558 48 55 1027
1216 2176 2580 1223 1453 2101 2488 2120 2499 73 43 152 55 219 35z m3714
-1089 l781 -150 796 -78 c875 -87 837 -80 879 -155 20 -35 22 -48 16 -120 -4
-46 -14 -92 -24 -109 -25 -43 -82 -77 -148 -89 -156 -29 -204 -42 -261 -68
-233 -110 -271 -373 -127 -871 20 -69 216 -621 435 -1228 220 -606 399 -1111
399 -1122 0 -12 6 -36 14 -55 28 -67 91 -52 134 32 10 17 231 291 492 609
1132 1377 1107 1345 1189 1509 63 128 84 209 79 318 -3 81 -7 101 -37 161 -75
153 -276 303 -574 430 -128 55 -161 77 -194 134 -23 39 -25 50 -19 113 10 111
48 167 129 190 23 6 165 -20 631 -116 l601 -124 610 -51 c658 -55 632 -51 679
-114 18 -24 21 -41 19 -112 -2 -100 -20 -143 -75 -187 -33 -27 -48 -31 -130
-37 -173 -14 -315 -82 -528 -254 -113 -92 -401 -378 -590 -586 -243 -268
-1782 -2061 -1846 -2150 -100 -141 -214 -385 -269 -575 -32 -114 -241 -1557
-250 -1735 -8 -143 6 -310 35 -427 80 -315 309 -511 749 -638 67 -19 138 -43
160 -54 44 -23 88 -71 97 -108 9 -35 -4 -150 -20 -182 -28 -53 -85 -91 -137
-91 -18 0 -444 76 -948 169 l-916 170 -920 96 c-710 75 -928 101 -955 114 -21
11 -45 35 -59 61 -23 41 -24 47 -14 121 12 87 28 120 76 150 53 32 94 38 287
42 237 6 352 29 497 99 220 107 370 350 457 739 14 64 56 323 92 575 66 458
66 459 61 634 -5 192 -25 351 -61 494 -20 77 -978 2659 -1123 3026 -266 671
-526 1007 -963 1243 -98 52 -163 113 -186 172 -14 37 -14 50 0 130 10 57 24
102 40 125 26 39 95 80 135 80 14 0 376 -67 805 -150z m21756 -509 c866 -116
1578 -469 2171 -1077 542 -557 849 -1245 956 -2149 22 -188 25 -777 5 -950
-84 -725 -319 -1321 -740 -1879 -203 -269 -496 -563 -758 -763 -660 -502
-1503 -796 -2479 -864 -214 -15 -642 -7 -825 16 -882 108 -1618 463 -2205
1066 -563 577 -881 1300 -970 2206 -101 1029 127 1937 678 2707 128 179 247
317 426 496 568 567 1269 933 2123 1109 177 37 447 76 618 91 69 5 141 12 160
14 19 2 179 3 355 1 262 -2 350 -7 485 -24z m-14385 -500 l470 -39 499 32
c314 20 517 30 548 25 70 -11 145 -49 204 -102 56 -51 147 -178 212 -297 22
-41 505 -1056 1072 -2255 567 -1199 1050 -2216 1073 -2259 52 -98 97 -137 165
-144 84 -8 145 37 202 148 13 25 486 1035 1052 2245 600 1285 1054 2243 1091
2304 73 122 170 227 245 265 102 52 111 52 647 6 l490 -42 487 32 c543 36 532
37 592 -31 35 -38 36 -41 36 -125 0 -101 -12 -129 -70 -168 -46 -30 -121 -49
-256 -65 -141 -17 -278 -56 -392 -112 -225 -110 -346 -293 -408 -619 -27 -142
-27 -660 1 -2870 27 -2208 26 -2184 79 -2405 50 -208 113 -334 220 -441 122
-122 291 -197 527 -233 137 -21 178 -42 210 -109 18 -36 21 -56 17 -121 -5
-90 -30 -141 -81 -168 -41 -22 -23 -22 -917 28 l-734 41 -731 -26 c-908 -33
-893 -33 -935 -4 -53 37 -70 80 -70 179 0 79 2 89 29 126 37 50 76 69 178 83
108 14 173 34 258 78 220 115 329 365 352 807 8 163 -26 3531 -37 3623 -10 88
-29 122 -69 122 -39 0 -80 -48 -135 -158 -24 -48 -539 -1151 -1146 -2452 -607
-1301 -1114 -2380 -1127 -2398 -83 -112 -233 -121 -331 -19 -22 22 -356 719
-1131 2355 -605 1277 -1114 2342 -1130 2366 -32 46 -47 56 -87 56 -31 0 -52
-33 -64 -101 -13 -75 -93 -3099 -87 -3284 9 -232 43 -395 115 -545 50 -104
175 -229 287 -287 122 -63 292 -110 460 -129 70 -7 124 -34 156 -78 18 -24 24
-47 27 -104 5 -94 -3 -134 -35 -173 -54 -63 -25 -63 -726 -14 l-636 44 -583
-29 c-720 -36 -706 -36 -748 -7 -58 38 -75 80 -75 178 0 75 3 90 25 122 38 56
86 77 213 93 554 72 782 324 862 954 10 78 37 848 85 2395 75 2414 75 2414 34
2609 -50 245 -152 414 -316 522 -147 98 -354 166 -603 199 -144 19 -168 28
-213 79 -37 42 -47 87 -38 169 11 111 67 167 165 167 31 0 268 -18 526 -39z"/>
<path d="M47478 51464 c-68 -34 -108 -64 -184 -137 -92 -89 -97 -96 -91 -127
10 -47 39 -82 135 -162 l86 -72 82 88 c45 48 94 110 109 138 24 44 27 58 22
107 -5 46 -52 190 -68 205 -2 2 -43 -16 -91 -40z"/>
<path d="M48526 46241 c-37 -6 -40 -9 -57 -58 -44 -131 -54 -210 -54 -438 0
-245 8 -306 76 -575 51 -204 214 -733 227 -738 14 -4 131 128 164 186 20 33
28 61 28 94 0 60 -94 522 -220 1080 -55 243 -100 445 -100 450 0 9 -3 9 -64
-1z"/>
<path d="M31111 34921 l-44 -6 203 -222 c112 -123 206 -223 209 -223 3 1 23
16 45 35 l38 34 -17 70 c-37 153 -109 253 -208 289 -59 22 -160 32 -226 23z"/>
<path d="M42410 26634 c-73 -15 -183 -59 -200 -79 -8 -10 -7 -15 7 -19 70 -21
1369 -336 1376 -333 16 5 -150 154 -231 208 -161 106 -375 191 -561 223 -114
19 -302 20 -391 0z"/>
<path d="M40913 26511 c-23 -11 -70 -39 -105 -63 -35 -24 -65 -44 -67 -45 -3
-2 28 -93 35 -102 6 -7 469 -39 475 -33 10 11 43 111 38 115 -2 2 -44 29 -94
60 -142 89 -203 104 -282 68z"/>
<path d="M43566 25249 c-67 -52 -84 -154 -42 -238 77 -152 337 -265 494 -215
9 2 -16 60 -77 181 -137 272 -158 293 -284 293 -50 0 -70 -5 -91 -21z"/>
<path d="M47743 21916 c-37 -17 -89 -84 -98 -128 -5 -22 -2 -37 12 -56 48 -64
53 -65 623 -136 157 -20 297 -38 313 -41 15 -2 27 0 27 5 0 30 -173 161 -288
219 -216 109 -504 176 -589 137z"/>
<path d="M34690 21234 c-135 -28 -324 -108 -438 -184 -33 -22 -93 -77 -134
-122 -40 -45 -92 -94 -115 -108 -39 -25 -47 -27 -95 -18 -85 16 -188 5 -251
-26 -95 -46 -151 -120 -277 -363 -48 -93 -54 -110 -58 -182 -6 -101 11 -172
52 -219 62 -71 225 -116 321 -88 28 8 75 21 105 30 168 48 316 -3 490 -169 41
-39 89 -81 106 -93 42 -29 236 -104 244 -95 33 40 72 95 69 97 -2 1 -47 36
-99 76 -310 240 -427 379 -461 548 -24 116 22 264 128 408 74 101 144 140 358
199 186 52 339 97 343 100 7 7 -111 176 -140 200 -33 28 -54 30 -148 9z"/>
<path d="M35627 21068 c-35 -22 -46 -35 -42 -47 4 -9 36 -95 72 -191 36 -96
87 -218 114 -272 63 -121 79 -131 229 -135 73 -3 113 0 130 9 33 18 61 101 63
192 l2 69 -70 64 c-67 62 -417 331 -439 338 -6 2 -33 -10 -59 -27z"/>
<path d="M43650 20974 c-30 -13 -340 -318 -340 -335 0 -16 355 -352 415 -392
110 -74 114 -72 320 104 61 52 132 111 158 133 l47 38 -167 175 c-172 179
-258 252 -333 278 -51 18 -56 18 -100 -1z"/>
<path d="M42044 20880 c3 -17 9 -43 12 -60 l6 -30 -173 -85 c-190 -93 -289
-129 -389 -140 -291 -31 -467 -132 -555 -317 -37 -77 -71 -198 -81 -284 l-6
-52 63 -10 c225 -39 456 -40 620 -3 264 60 492 217 643 445 95 142 212 404
191 425 -6 5 -84 39 -174 75 l-163 65 6 -29z"/>
<path d="M32505 20319 c-136 -97 -171 -134 -215 -222 -106 -217 -91 -327 67
-478 74 -70 266 -216 280 -212 11 3 124 255 159 353 58 162 45 247 -60 401
-35 52 -81 120 -103 151 -21 31 -42 57 -48 57 -5 0 -41 -23 -80 -50z"/>
<path d="M31003 19873 c-73 -2 -133 -6 -133 -8 0 -8 262 -338 317 -399 29 -33
77 -77 105 -99 64 -48 200 -115 251 -124 47 -7 63 6 129 106 78 119 109 261
73 330 -22 44 -101 108 -179 146 -82 40 -185 56 -336 53 -52 -1 -155 -4 -227
-5z"/>
<path d="M30094 19166 c-35 -11 -169 -82 -252 -133 -24 -15 -23 -16 109 -141
72 -70 141 -133 152 -141 15 -10 50 -14 137 -12 133 2 233 -15 306 -52 53 -27
130 -102 160 -154 17 -31 22 -33 70 -33 51 0 153 16 162 25 10 9 -29 159 -49
191 -27 45 -230 238 -322 307 -94 71 -200 122 -292 142 -84 18 -127 18 -181 1z"/>
<path d="M29290 18823 c-51 -8 -108 -20 -126 -28 -27 -11 -32 -19 -37 -61 -6
-49 20 -293 32 -306 3 -3 45 -9 92 -13 l87 -7 6 28 c3 16 17 103 31 194 14 91
27 175 30 188 6 25 14 25 -115 5z"/>
<path d="M39940 18679 c-107 -9 -195 -18 -196 -18 -4 -5 11 -182 17 -198 9
-25 86 -67 141 -77 53 -10 113 9 159 51 41 37 114 171 125 231 8 38 32 37
-246 11z"/>
<path d="M41747 18613 c-74 -66 -147 -150 -147 -171 0 -9 25 -53 55 -98 74
-110 308 -399 323 -399 12 0 332 265 332 275 0 9 -319 305 -408 379 -40 34
-79 61 -87 61 -8 0 -38 -21 -68 -47z"/>
<path d="M27563 18544 c-24 -26 -43 -50 -43 -53 0 -11 248 -303 349 -411 112
-120 186 -168 274 -177 50 -5 54 -3 117 45 75 57 167 151 229 235 39 51 43 61
38 98 -6 47 -51 124 -87 150 -31 22 -285 79 -557 125 -270 45 -266 45 -320
-12z"/>
<path d="M27070 18077 c-245 -236 -267 -294 -219 -595 12 -81 24 -148 25 -150
2 -3 362 152 417 179 28 15 37 25 37 45 0 25 -79 517 -83 520 -1 0 -22 19 -47
41 l-45 41 -85 -81z"/>
<path d="M39935 18125 c-5 -2 -29 -9 -53 -15 -37 -10 -46 -17 -63 -53 -10 -24
-19 -65 -19 -94 0 -43 5 -59 33 -95 45 -61 107 -91 173 -85 53 5 135 41 191
83 30 23 31 26 21 61 -15 54 -52 124 -80 150 -35 33 -91 53 -145 52 -26 0 -52
-2 -58 -4z"/>
<path d="M41740 17523 c-56 -19 -297 -117 -304 -124 -7 -6 37 -141 54 -161 4
-6 356 125 368 137 2 2 -12 37 -32 79 -35 76 -44 84 -86 69z"/>
<path d="M25898 17337 c-77 -162 -108 -246 -108 -293 0 -26 13 -48 59 -101
102 -119 75 -130 244 90 l147 192 -131 128 c-72 70 -133 127 -137 127 -4 -1
-37 -65 -74 -143z"/>
<path d="M24466 17122 c-8 -14 9 -97 33 -163 60 -159 236 -380 349 -438 62
-32 134 -28 211 10 70 35 86 55 107 131 20 71 30 291 15 344 -13 47 -51 73
-147 100 -70 20 -557 34 -568 16z"/>
<path d="M40264 16725 c-120 -26 -218 -95 -230 -163 -10 -53 12 -106 80 -195
34 -45 118 -163 185 -262 68 -99 148 -209 178 -245 55 -65 241 -239 256 -240
4 0 46 58 92 129 l85 129 -55 209 c-103 395 -125 452 -212 534 -59 56 -133 94
-213 109 -66 12 -89 12 -166 -5z"/>
<path d="M23720 16528 c-126 -162 -184 -246 -230 -334 -30 -58 -31 -63 -17
-91 15 -29 81 -94 232 -229 l80 -71 167 116 c91 64 184 130 205 147 l38 31
-14 39 c-7 21 -37 80 -66 129 -54 92 -259 390 -275 400 -5 3 -59 -59 -120
-137z"/>
<path d="M41570 16631 c-88 -27 -195 -136 -261 -267 -40 -78 -44 -93 -44 -158
0 -59 5 -82 31 -136 44 -93 78 -130 119 -130 59 0 176 29 242 61 128 61 173
132 264 414 32 99 57 180 56 180 -1 1 -74 11 -162 23 -168 23 -204 25 -245 13z"/>
<path d="M22663 16153 c-27 -5 -27 -5 -13 -213 15 -223 10 -207 111 -319 49
-55 98 -103 109 -106 25 -8 72 27 198 150 81 77 101 104 143 187 l48 97 -93
50 c-51 28 -144 75 -206 106 -110 54 -115 55 -194 54 -45 -1 -91 -4 -103 -6z"/>
<path d="M39190 15982 c-1 -35 174 -1162 180 -1162 4 0 34 35 67 78 83 107
167 189 208 202 63 21 95 1 244 -151 150 -152 195 -181 317 -201 101 -17 304
14 304 46 0 25 -93 201 -150 285 -258 377 -744 794 -1035 889 -92 30 -135 34
-135 14z"/>
<path d="M21113 15848 c-11 -13 -41 -54 -66 -93 -24 -38 -86 -115 -137 -170
-51 -55 -129 -149 -175 -210 -115 -154 -417 -594 -419 -611 -1 -17 289 -219
389 -270 l73 -38 88 12 c73 11 129 10 351 -4 145 -9 266 -14 270 -11 3 3 -45
68 -106 144 -189 233 -220 322 -200 573 13 150 19 164 99 209 l39 22 86 -171
c54 -107 114 -208 161 -270 l74 -100 142 117 c183 151 267 231 323 305 41 55
45 65 45 116 0 100 -51 244 -100 286 -49 41 -333 108 -636 150 -303 42 -277
40 -301 14z"/>
<path d="M16340 10130 c-19 -10 -56 -40 -81 -67 -52 -54 -1287 -1555 -1332
-1619 -39 -56 -46 -110 -17 -147 12 -15 35 -34 51 -42 54 -29 1633 -485 1676
-485 91 0 123 37 123 140 0 97 -218 2069 -235 2127 -29 98 -105 136 -185 93z"/>
<path d="M41466 9914 c-472 -64 -853 -283 -1136 -655 -122 -159 -230 -345
-304 -521 -217 -518 -273 -1080 -181 -1808 150 -1180 548 -2100 1185 -2741
153 -153 241 -227 397 -332 262 -177 551 -289 852 -331 128 -18 401 -21 536
-6 391 45 722 196 989 451 186 177 316 358 441 614 191 388 275 786 275 1300
0 247 -9 380 -41 625 -155 1198 -554 2117 -1199 2760 -204 203 -399 345 -635
460 -211 103 -404 161 -635 190 -115 14 -423 11 -544 -6z"/>
<path d="M34290 42673 c-44 -29 -88 -75 -100 -103 -9 -23 -8 -34 5 -61 30 -58
82 -114 129 -140 45 -23 46 -23 78 -6 42 22 188 136 187 145 0 4 -40 41 -89
82 -122 102 -160 117 -210 83z"/>
</g>
</svg>
