<?xml version="1.0" standalone="no"?>
<!DOCTYPE svg PUBLIC "-//W3C//DTD SVG 20010904//EN"
 "http://www.w3.org/TR/2001/REC-SVG-20010904/DTD/svg10.dtd">
<svg version="1.0" xmlns="http://www.w3.org/2000/svg"
 width="1516.000000pt" height="1516.000000pt" viewBox="0 0 1516.000000 1516.000000"
 preserveAspectRatio="xMidYMid meet">
<metadata>
Created by potrace 1.11, written by Peter Selinger 2001-2013
</metadata>
<g transform="translate(0.000000,1516.000000) scale(0.100000,-0.100000)"
fill="#000000" stroke="none">
<path d="M6902 14624 c-59 -29 -101 -77 -139 -161 -23 -48 -27 -72 -28 -138 0
-72 3 -86 33 -138 l33 -58 -30 -46 c-37 -55 -47 -118 -32 -187 17 -74 51 -120
111 -148 l51 -23 -5 -695 c-7 -854 -8 -875 -68 -1040 -152 -417 -209 -827
-162 -1160 l16 -115 -28 -90 c-47 -152 -76 -185 -336 -380 -125 -94 -268 -206
-318 -249 -208 -182 -345 -382 -417 -611 l-28 -90 -3 -1632 -3 -1632 -27 4
c-479 86 -643 120 -947 196 -661 165 -1287 390 -1796 645 -122 61 -331 175
-387 212 -18 12 -21 12 -17 1 2 -8 162 -579 354 -1270 431 -1547 409 -1468
416 -1479 15 -24 339 -159 579 -240 473 -162 971 -284 1536 -379 l285 -48 5
-1344 c5 -1246 7 -1348 23 -1404 24 -81 64 -143 116 -180 l43 -30 1825 -3
c1307 -1 1837 1 1867 9 62 17 129 91 158 176 l23 68 3 1347 2 1347 33 5 c17 3
113 17 212 32 707 102 1422 279 1923 477 112 43 156 66 163 81 13 31 830 2898
827 2902 -2 1 -59 -31 -128 -72 -576 -343 -1441 -674 -2313 -884 -197 -47
-654 -140 -691 -140 l-26 0 -2 1628 -3 1627 -29 85 c-100 301 -269 500 -694
818 -292 218 -325 254 -374 410 -22 71 -22 89 2 322 27 259 -40 666 -166 1015
-25 72 -50 155 -55 185 -13 85 -29 741 -29 1177 l0 393 45 21 c128 60 167 237
79 356 l-24 32 24 36 c32 46 50 128 44 198 -9 115 -107 252 -197 277 -22 6
-271 10 -657 10 l-620 0 -52 -26z m1436 -141 c20 -29 42 -86 42 -109 0 -12
-135 -14 -801 -14 -757 0 -800 1 -795 18 2 9 8 28 11 42 4 14 16 40 27 58 l20
32 738 0 739 0 19 -27z m12 -276 c0 -7 -15 -28 -34 -46 l-34 -33 31 -29 32
-28 -765 0 -765 0 33 28 33 28 -36 36 c-19 19 -35 40 -35 46 0 8 217 11 770
11 626 0 770 -2 770 -13z m30 -297 c0 -23 -29 -76 -53 -98 -14 -13 -44 -29
-68 -36 l-44 -13 -3 -142 -3 -141 -629 0 -629 0 -3 142 -3 142 -35 9 c-64 16
-103 56 -124 125 l-7 22 800 0 c544 0 801 -3 801 -10z m-169 -765 c1 -25 1
-57 2 -72 l1 -28 -632 -3 -632 -2 0 75 0 75 630 0 630 0 1 -45z m9 -545 l0
-150 -640 0 -641 0 2 143 c0 78 3 145 6 150 2 4 290 7 639 7 l634 0 0 -150z
m20 -460 c0 -11 9 -45 19 -75 l19 -55 -695 0 c-658 0 -695 1 -690 18 4 9 11
37 18 62 6 25 13 51 15 58 3 9 143 12 659 12 651 0 655 0 655 -20z m99 -302
c41 -132 91 -353 106 -473 4 -27 9 -58 12 -67 4 -17 -42 -18 -873 -18 l-877 0
7 56 c16 139 95 483 121 523 4 8 229 11 750 11 l743 0 11 -32z m131 -785 c-1
-43 -5 -109 -10 -148 -6 -38 -13 -103 -17 -142 l-6 -73 -857 0 -858 0 -6 78
c-3 42 -9 141 -12 220 l-7 142 887 0 886 0 0 -77z m39 -555 c17 -29 38 -63 47
-75 l16 -23 -990 0 -990 0 50 75 50 75 893 0 893 0 31 -52z m509 -442 c31 -25
71 -56 87 -70 l30 -25 -1548 -1 c-1112 0 -1546 3 -1541 11 3 6 41 38 84 72
l78 62 1377 -2 1376 -3 57 -44z m486 -601 c14 -36 26 -70 26 -75 0 -7 -671
-10 -1951 -10 l-1950 0 6 23 c4 12 17 46 30 75 l24 52 1894 0 1895 0 26 -65z
m56 -450 l0 -75 -1980 0 -1980 0 0 75 0 75 1980 0 1980 0 0 -75z m0 -370 l0
-145 -1980 0 -1980 0 0 145 0 145 1980 0 1980 0 0 -145z m0 -660 l0 -75 -1980
0 -1980 0 0 75 0 75 1980 0 1980 0 0 -75z m0 -290 l0 -75 -1980 0 -1980 0 0
75 0 75 1980 0 1980 0 0 -75z m0 -300 l0 -75 -1977 3 -1978 2 -3 73 -3 72
1981 0 1980 0 0 -75z m0 -510 l0 -145 -1980 0 -1980 0 0 145 0 145 1980 0
1980 0 0 -145z m-1237 -442 l1237 -6 0 -69 0 -68 -1980 0 -1980 0 0 68 c0 38
3 72 7 75 8 9 1133 9 2716 0z m667 -446 l175 -2 -205 -23 c-528 -58 -872 -76
-1435 -76 -454 0 -701 9 -1060 39 -246 20 -594 58 -590 65 3 5 2737 3 3115 -3z
m2260 -101 c23 -28 7 -58 -45 -86 -27 -15 -58 -40 -68 -56 -33 -52 -18 -133
122 -683 73 -283 131 -524 129 -535 -2 -15 -10 -21 -28 -21 -24 1 -97 47 -860
540 -151 98 -289 187 -307 197 -35 21 -53 17 -53 -10 0 -37 180 -722 199 -760
31 -61 61 -76 160 -82 l86 -5 0 -35 0 -34 -130 -26 c-71 -15 -183 -43 -248
-64 -127 -40 -147 -39 -147 10 0 18 11 29 48 48 71 36 86 57 90 129 3 53 -12
123 -103 482 -106 420 -137 514 -178 537 -12 7 -51 15 -87 18 l-65 5 0 35 0
35 75 13 c41 7 124 28 183 47 88 27 114 31 142 24 18 -5 226 -134 462 -286
520 -335 492 -318 504 -306 12 12 -112 516 -146 590 -31 70 -61 87 -158 93
-62 4 -82 9 -91 23 -23 36 4 50 145 79 74 15 181 43 239 62 125 41 115 40 130
22z m-6608 -153 c10 -13 37 -182 87 -558 106 -782 99 -753 189 -839 29 -28 52
-55 52 -62 0 -6 -8 -22 -19 -35 l-18 -23 -149 52 c-82 28 -205 63 -274 78
-141 31 -159 41 -143 77 9 19 22 26 57 31 64 10 86 40 86 120 0 75 -18 228
-29 239 -13 13 -421 126 -436 121 -18 -7 -117 -129 -139 -171 -35 -68 -11
-123 79 -180 45 -28 55 -52 35 -83 -8 -13 -27 -9 -137 28 -70 23 -162 49 -203
58 -98 20 -120 30 -120 53 0 25 29 54 47 47 8 -3 29 0 47 8 65 27 55 16 690
776 98 118 193 230 210 248 33 36 65 41 88 15z m663 -178 c72 -13 196 -31 277
-39 81 -8 152 -17 158 -21 14 -9 13 -48 -2 -63 -7 -7 -22 -12 -34 -12 -12 0
-34 -10 -49 -22 -25 -20 -27 -26 -22 -72 3 -28 43 -155 89 -283 l83 -232 145
177 c166 204 195 249 185 291 -8 36 -25 52 -92 85 -53 27 -63 39 -55 68 7 29
30 29 161 4 69 -14 170 -28 224 -31 105 -7 115 -13 103 -60 -4 -16 -13 -25
-27 -25 -39 0 -95 -39 -179 -127 -128 -132 -364 -412 -389 -461 -14 -27 -31
-99 -46 -200 -29 -180 -30 -220 -11 -265 18 -43 44 -64 113 -92 45 -19 59 -29
61 -48 6 -48 -13 -50 -190 -18 -90 17 -243 39 -340 50 -97 10 -181 21 -187 25
-16 10 -14 41 5 57 9 7 45 16 80 20 74 7 98 24 125 85 25 56 53 246 45 311 -6
50 -201 583 -246 674 -35 70 -69 108 -126 145 -55 36 -69 65 -42 92 17 17 36
15 183 -13z m3954 -86 c268 -43 463 -218 533 -478 27 -101 29 -288 4 -381 -71
-266 -287 -462 -572 -522 -80 -16 -123 -19 -224 -15 -203 8 -322 59 -461 198
-86 86 -136 175 -165 294 -23 96 -23 279 0 365 53 198 192 368 376 460 148 74
350 105 509 79z m-2309 -114 c11 -11 109 -207 218 -435 231 -485 218 -460 238
-460 16 0 55 78 285 573 68 148 136 283 151 301 l27 33 200 -2 c216 -1 233 -5
214 -47 -8 -18 -24 -26 -71 -36 -72 -15 -108 -41 -122 -90 -8 -25 -10 -185 -8
-507 4 -511 6 -528 61 -568 14 -11 47 -25 74 -32 46 -12 48 -14 48 -46 l0 -34
-309 0 -309 0 -10 24 c-10 20 -8 26 12 42 13 11 33 19 45 19 31 0 63 33 76 78
13 45 10 747 -4 747 -4 0 -103 -204 -220 -454 -116 -250 -218 -459 -227 -464
-40 -25 -30 -43 -339 608 -68 143 -125 262 -127 265 -15 18 -21 -60 -27 -333
-8 -341 -4 -372 46 -410 14 -11 50 -25 80 -31 51 -12 53 -14 53 -47 l0 -34
-248 0 c-227 0 -250 2 -258 18 -15 27 6 55 49 63 89 16 126 56 141 152 17 112
34 883 21 933 -19 70 -87 119 -165 119 -12 0 -26 5 -33 12 -12 12 -16 50 -7
60 3 3 100 4 215 4 195 -1 211 -3 230 -21z m2610 -2075 l0 -70 -1980 0 -1980
0 0 70 0 70 1980 0 1980 0 0 -70z m0 -515 l0 -145 -1980 0 -1980 0 0 145 0
145 1980 0 1980 0 0 -145z m0 -515 l0 -70 -1980 0 -1980 0 0 70 0 70 1980 0
1980 0 0 -70z m0 -515 l0 -145 -1980 0 -1980 0 0 145 0 145 1980 0 1980 0 0
-145z m0 -510 l0 -75 -1980 0 -1980 0 0 75 0 75 1980 0 1980 0 0 -75z m-10
-243 c0 -10 -7 -42 -15 -70 l-16 -52 -1935 0 -1935 0 -14 33 c-7 17 -16 49
-20 70 l-7 37 1971 0 c1899 0 1971 -1 1971 -18z"/>
<path d="M4353 5323 c-139 -163 -215 -265 -206 -274 5 -5 78 -29 162 -53 128
-37 153 -41 158 -29 6 15 -34 390 -43 405 -10 16 -23 7 -71 -49z"/>
<path d="M8899 5335 c-56 -18 -137 -88 -174 -150 -34 -58 -65 -182 -65 -259 0
-145 50 -346 115 -461 99 -176 232 -269 385 -269 254 0 392 236 336 573 -34
199 -93 334 -197 445 -89 95 -159 129 -274 133 -50 2 -97 -3 -126 -12z"/>
</g>
</svg>
